<svg width="18" height="19" viewBox="0 0 18 19" fill="none" xmlns="http://www.w3.org/2000/svg">
<path d="M11.7963 3.41316C12.8718 2.33316 14.4453 2.31066 15.3161 3.18516C16.1891 4.06116 16.1658 5.64516 15.0888 6.72516L13.2716 8.54991C13.1693 8.65614 13.1128 8.79832 13.1143 8.94581C13.1157 9.09329 13.1751 9.2343 13.2795 9.33845C13.384 9.4426 13.5252 9.50155 13.6726 9.50262C13.8201 9.50369 13.9622 9.44679 14.0681 9.34416L15.8861 7.51941C17.3193 6.08016 17.4993 3.78291 16.1133 2.39091C14.7258 0.998164 12.4331 1.17966 10.9983 2.61891L7.36384 6.26916C5.93059 7.70841 5.75059 10.0057 7.13659 11.3969C7.18836 11.4507 7.25033 11.4937 7.31888 11.5234C7.38744 11.553 7.4612 11.5687 7.53588 11.5695C7.61056 11.5703 7.68466 11.5563 7.75384 11.5281C7.82303 11.5 7.88593 11.4584 7.93886 11.4057C7.99179 11.353 8.03371 11.2903 8.06215 11.2213C8.0906 11.1522 8.10501 11.0782 8.10454 11.0035C8.10407 10.9288 8.08874 10.855 8.05943 10.7863C8.03013 10.7176 7.98743 10.6554 7.93384 10.6034C7.06084 9.72741 7.08484 8.14341 8.16109 7.06341L11.7963 3.41316Z" fill="#5888FF"/>
<path d="M10.8641 7.60261C10.7587 7.49689 10.6156 7.43738 10.4663 7.43716C10.317 7.43695 10.1737 7.49606 10.068 7.60149C9.96225 7.70691 9.90273 7.85001 9.90252 7.99932C9.90231 8.14862 9.96142 8.29189 10.0668 8.39761C10.9398 9.27361 10.9166 10.8569 9.83959 11.9376L6.20434 15.5871C5.12809 16.6671 3.55459 16.6896 2.68384 15.8151C1.81084 14.9391 1.83484 13.3551 2.91109 12.2751L4.72909 10.4504C4.78125 10.398 4.82257 10.3359 4.85072 10.2676C4.87887 10.1993 4.89329 10.1261 4.89315 10.0522C4.89301 9.97828 4.87832 9.90514 4.84991 9.83693C4.82151 9.76871 4.77994 9.70676 4.72759 9.65461C4.67525 9.60246 4.61314 9.56113 4.54482 9.53298C4.4765 9.50483 4.4033 9.49042 4.32941 9.49056C4.25552 9.49069 4.18237 9.50539 4.11416 9.53379C4.04595 9.5622 3.984 9.60376 3.93184 9.65611L2.11384 11.4809C0.680594 12.9209 0.500594 15.2174 1.88659 16.6094C3.27409 18.0029 5.56684 17.8206 7.00159 16.3814L10.6368 12.7311C12.0701 11.2926 12.2501 8.99386 10.8641 7.60261Z" fill="#5888FF"/>
</svg>
