<svg width="202" height="60" viewBox="0 0 202 60" fill="none" xmlns="http://www.w3.org/2000/svg">
<g clip-path="url(#clip0_79_5752)">
<path d="M83.6526 18.0955V27.9683H80.3183V24.3299H77.235V27.9683H73.8992V18.0955H77.235V21.5937H80.3183V18.0955H83.6526Z" fill="white"/>
<path d="M93.0998 26.2475H89.3364L88.672 27.9683H85.2778L89.6046 18.0955H92.8836L97.2104 27.9683H93.761L93.0998 26.2475ZM92.1798 23.8498L91.2189 21.367L90.2595 23.8498H92.1798Z" fill="white"/>
<path d="M106.37 20.6759H102.11V27.9683H98.8357V18.0955H106.37V20.6759Z" fill="white"/>
<path d="M116.634 18.0955V27.9683H113.355V20.6759H111.089L111.06 21.8189C111.048 22.981 110.935 24.14 110.721 25.2824C110.533 26.1851 110.203 26.8877 109.732 27.3905C109.26 27.8932 108.587 28.1446 107.71 28.1446C107.231 28.1413 106.754 28.08 106.29 27.962L106.46 25.2966C106.581 25.3248 106.704 25.3391 106.828 25.3391C106.987 25.3455 107.144 25.3096 107.285 25.2352C107.425 25.1608 107.543 25.0505 107.627 24.9156C107.831 24.5706 107.959 24.1856 108.001 23.7868C108.067 23.3145 108.114 22.7005 108.143 21.9401L108.27 18.0892L116.634 18.0955Z" fill="white"/>
<path d="M127.774 18.0956V27.9683H124.501V25.6273H123.611L122.098 27.9683H118.599L120.556 25.1471C119.949 24.8756 119.435 24.4315 119.079 23.8703C118.724 23.2818 118.545 22.6046 118.563 21.9181C118.545 21.2011 118.739 20.4947 119.122 19.8872C119.509 19.2987 120.062 18.8371 120.711 18.56C121.478 18.2317 122.307 18.0706 123.142 18.0877L127.774 18.0956ZM121.921 21.8614C121.921 22.7011 122.345 23.1209 123.193 23.1209H124.501V20.6618H123.201C122.349 20.6618 121.922 21.0617 121.921 21.8614Z" fill="white"/>
<path d="M141.33 25.3879V29.9H138.277V27.9683H132.652V29.9H129.598V25.3879H129.881C130.455 25.3879 130.86 25.0258 131.096 24.3016C131.331 23.5774 131.482 22.509 131.549 21.0963L131.662 18.0924H140.025V25.3848L141.33 25.3879ZM134.22 23.801C134.143 24.357 133.966 24.8945 133.698 25.3879H136.751V20.6759H134.474L134.446 21.3812C134.422 22.1918 134.347 23.0001 134.22 23.801Z" fill="white"/>
<path d="M146.462 21.2332C146.041 21.6804 145.831 22.2797 145.831 23.0311C145.831 23.7826 146.041 24.3825 146.462 24.8306C146.679 25.0554 146.941 25.2318 147.231 25.3479C147.521 25.4641 147.833 25.5174 148.146 25.5044C148.975 25.5044 149.695 25.1193 150.307 24.3489L152.414 26.2239C151.926 26.8619 151.284 27.3665 150.549 27.6912C149.737 28.041 148.859 28.2139 147.975 28.1982C146.993 28.2129 146.022 27.988 145.147 27.5432C144.332 27.1271 143.649 26.4919 143.177 25.7091C142.707 24.895 142.459 23.9721 142.459 23.0327C142.459 22.0933 142.707 21.1704 143.177 20.3563C143.649 19.5736 144.332 18.9383 145.147 18.5222C146.022 18.0761 146.993 17.8507 147.975 17.8657C148.86 17.8505 149.737 18.0238 150.549 18.3742C151.284 18.6989 151.926 19.2036 152.414 19.8415L150.307 21.726C149.695 20.9546 148.975 20.5694 148.146 20.5704C147.834 20.556 147.523 20.6077 147.233 20.7219C146.942 20.8361 146.68 21.0104 146.462 21.2332ZM157.56 24.16H161.741V21.7622H157.56V20.6051H162.324V18.0956H153.359V20.6617H154.281V27.9683H162.508V25.4493H157.56V24.16ZM173.295 19.8447C173.586 20.28 173.777 20.774 173.854 21.2913C173.932 21.8087 173.894 22.3368 173.743 22.8378C173.592 23.3388 173.332 23.8005 172.982 24.1899C172.632 24.5793 172.2 24.8867 171.717 25.0904C170.962 25.4072 170.148 25.5611 169.328 25.5422H167.9V27.9683H164.564V20.6617H163.412V18.0956H169.328C170.147 18.0767 170.961 18.2301 171.717 18.5458C172.36 18.8138 172.909 19.2657 173.295 19.8447ZM170.482 21.8189C170.491 21.6606 170.465 21.5021 170.407 21.3547C170.348 21.2073 170.258 21.0745 170.142 20.9656C169.915 20.7641 169.576 20.6617 169.125 20.6617H167.908V22.976H169.125C169.576 22.976 169.914 22.8737 170.142 22.6722C170.258 22.5633 170.348 22.4305 170.407 22.2831C170.465 22.1356 170.491 21.9772 170.482 21.8189ZM184.434 23.6735C184.734 24.0893 184.888 24.5924 184.873 25.1046C184.886 25.5136 184.796 25.9194 184.612 26.2853C184.429 26.6511 184.156 26.9655 183.82 27.2C183.117 27.7122 182.125 27.9683 180.844 27.9683H175.556V20.6617H174.498V18.0956H180.574C181.8 18.0956 182.75 18.3212 183.424 18.7725C183.744 18.9742 184.006 19.256 184.183 19.5899C184.361 19.9239 184.447 20.2983 184.434 20.6759C184.443 21.1129 184.328 21.5435 184.103 21.9181C183.868 22.2862 183.542 22.5873 183.156 22.7918C183.661 22.9507 184.107 23.258 184.434 23.6735ZM178.837 21.8834H180.257C180.805 21.8834 181.078 21.6426 181.078 21.164C181.078 20.6854 180.805 20.4161 180.257 20.4161H178.837V21.8834ZM181.508 24.8448C181.508 24.3379 181.234 24.0828 180.688 24.0828H178.837V25.6351H180.688C181.234 25.6414 181.508 25.3785 181.508 24.8511V24.8448ZM186.766 27.962H190.047V18.0956H186.766V27.962ZM197.654 25.4934C197.342 25.5068 197.031 25.4541 196.741 25.3387C196.451 25.2234 196.189 25.0481 195.972 24.8243C195.551 24.3772 195.341 23.7774 195.341 23.0248C195.341 22.2723 195.551 21.673 195.972 21.2269C196.189 21.0032 196.451 20.8279 196.741 20.7125C197.031 20.5972 197.342 20.5445 197.654 20.5578C198.483 20.5578 199.204 20.943 199.816 21.7134L201.923 19.8384C201.435 19.2001 200.793 18.6953 200.057 18.3711C199.246 18.0207 198.368 17.8473 197.484 17.8626C196.502 17.8476 195.531 18.073 194.656 18.5191C193.841 18.9351 193.158 19.5704 192.685 20.3532C192.215 21.1673 191.968 22.0902 191.968 23.0296C191.968 23.969 192.215 24.8919 192.685 25.706C193.158 26.4887 193.841 27.124 194.656 27.5401C195.531 27.9849 196.502 28.2097 197.484 28.195C198.368 28.2107 199.245 28.0379 200.057 27.6881C200.793 27.3638 201.435 26.859 201.923 26.2208L199.816 24.3457C199.203 25.1182 198.482 25.5044 197.653 25.5044L197.654 25.4934Z" fill="white"/>
<path d="M36.4698 41.5108C33.9516 42.8155 31.0813 43.2828 28.2781 42.8443C25.4749 42.4059 22.8856 41.0847 20.8884 39.0738C18.8912 37.0629 17.5908 34.4676 17.177 31.6669C16.7631 28.8663 17.2577 26.0069 18.5883 23.5066L16.2986 21.2002C14.3912 24.3288 13.5881 28.0043 14.0171 31.6411C14.4462 35.278 16.0828 38.667 18.6662 41.2682C21.2497 43.8694 24.6313 45.5333 28.2724 45.9946C31.9135 46.456 35.6047 45.6884 38.7578 43.8141L36.4698 41.5108ZM41.423 46.4984C37.0552 49.3661 31.7414 50.4284 26.6035 49.4607C21.4655 48.4931 16.9054 45.5714 13.8859 41.3125C11.5709 38.0535 10.3013 34.1705 10.245 30.1764C10.1887 26.1824 11.3482 22.2652 13.5703 18.9425L13.7786 18.6576C13.7786 18.6576 11.0724 16.0914 11.4117 16.5621C5.22923 25.0321 5.73891 35.2071 11.3312 43.1135C18.7082 53.5404 33.1923 56.0594 43.6669 48.756L41.423 46.4984ZM46.4835 51.593C46.3384 51.7032 46.1885 51.8102 46.0386 51.9157C33.7762 60.551 16.7578 57.6211 8.10428 45.3885C1.12967 35.5299 1.67881 22.5935 8.57767 13.4292L6.34485 11.1779C-1.60178 21.4237 -2.32607 36.0667 5.54482 47.1911C15.1957 60.8328 34.1691 64.098 47.8422 54.4724C48.1372 54.2646 48.426 54.0537 48.7116 53.8427L46.4835 51.593Z" fill="white"/>
<path d="M42.8021 20.816C40.4112 17.445 36.835 15.0964 32.7862 14.2383C28.7373 13.3802 24.5131 14.0756 20.9552 16.1859L23.2448 18.4891C25.7629 17.1845 28.6332 16.7172 31.4364 17.1557C34.2396 17.5941 36.8289 18.9152 38.8261 20.9261C40.8233 22.937 42.1238 25.5324 42.5376 28.333C42.9514 31.1337 42.4569 33.993 41.1263 36.4934L43.4159 38.8014C45.0786 36.069 45.9062 32.912 45.7971 29.7174C45.6881 26.5227 44.6472 23.4292 42.8021 20.816ZM48.3818 16.8802C41.0063 6.45482 26.5222 3.93586 16.0461 11.2456L18.29 13.5016C22.6577 10.6347 27.9711 9.573 33.1085 10.5406C38.246 11.5081 42.8058 14.4293 45.8255 18.6875C48.1401 21.9466 49.4094 25.8296 49.4657 29.8236C49.5221 33.8175 48.3628 37.7346 46.141 41.0574L45.9328 41.3424C45.9328 41.3424 48.639 43.9101 48.3076 43.4378C54.4838 34.9741 53.9756 24.7928 48.3818 16.8864V16.8802ZM54.1697 12.8026C44.5189 -0.832844 25.5439 -4.09332 11.8708 5.53225C11.5773 5.74216 11.288 5.95207 11.0029 6.16199L13.2294 8.40701C13.3762 8.29838 13.5261 8.18975 13.676 8.09214C25.9368 -0.54159 42.9551 2.3867 51.6103 14.6194C58.5849 24.478 58.0342 37.416 51.1369 46.5881L53.3634 48.83C61.3148 38.5715 62.039 23.9301 54.1697 12.8089V12.8026Z" fill="white"/>
<path d="M28.7188 39.1792C26.8891 38.8645 25.1941 38.0155 23.848 36.7396C22.5019 35.4638 21.5653 33.8183 21.1565 32.0113C20.7478 30.2043 20.8854 28.3169 21.5518 26.5879C22.2182 24.8589 23.3836 23.3659 24.9005 22.2977C26.4174 21.2295 28.2177 20.6341 30.0738 20.5868C31.9299 20.5395 33.7584 21.0424 35.328 22.0319C36.8976 23.0214 38.1379 24.4531 38.8919 26.1459C39.6459 27.8387 39.8799 29.7166 39.5642 31.542C39.1386 33.9884 37.7577 36.1664 35.7244 37.5982C33.6912 39.03 31.1718 39.5985 28.7188 39.1792ZM31.3777 23.7994C30.1588 23.5884 28.9045 23.7427 27.7735 24.2429C26.6425 24.7431 25.6855 25.5667 25.0237 26.6096C24.3618 27.6524 24.0248 28.8676 24.0552 30.1016C24.0856 31.3355 24.482 32.5328 25.1945 33.5419C25.9069 34.551 26.9032 35.3267 28.0575 35.7709C29.2118 36.2151 30.4721 36.3077 31.6792 36.0372C32.8863 35.7667 33.9859 35.1451 34.8389 34.2511C35.6919 33.3571 36.26 32.2308 36.4714 31.0146C36.7526 29.3833 36.3734 27.7073 35.4173 26.3545C34.4611 25.0018 33.006 24.0828 31.3714 23.7994H31.3777Z" fill="white"/>
<path d="M78.571 34.7474V40.5725H77.7552V38.8738H76.1457C76.0703 38.875 75.995 38.8718 75.92 38.8644L74.7523 40.571H73.8687L75.161 38.729C74.7728 38.6104 74.4355 38.3654 74.2032 38.0331C73.9723 37.6816 73.8555 37.2677 73.8687 36.8476C73.8687 36.1885 74.0817 35.6742 74.5077 35.3048C74.9338 34.9353 75.5077 34.7511 76.2293 34.7522L78.571 34.7474ZM75.09 37.83C75.3446 38.0599 75.7186 38.1748 76.212 38.1748H77.7552V35.4716H76.2624C75.7617 35.4716 75.3783 35.5881 75.1121 35.8211C74.8585 36.0932 74.7157 36.4498 74.7116 36.8213C74.7075 37.1928 74.8424 37.5525 75.09 37.83Z" fill="white"/>
<path d="M82.843 38.0079H81.6248V40.5709H80.8074V34.7458H81.6248V37.2743H82.8587L84.6939 34.7458H85.5855L83.501 37.5655L85.6833 40.5709H84.7365L82.843 38.0079Z" fill="white"/>
<path d="M86.96 34.7474H87.7852V40.5725H86.96V34.7474Z" fill="white"/>
<path d="M91.048 40.2498C90.5895 40.0021 90.2075 39.6341 89.9434 39.1855C89.6817 38.7192 89.5442 38.1937 89.5442 37.6592C89.5442 37.1247 89.6817 36.5992 89.9434 36.1329C90.2071 35.6836 90.5891 35.315 91.048 35.067C91.5329 34.8075 92.0758 34.6748 92.626 34.6813C93.0535 34.6757 93.4779 34.7533 93.8757 34.9096C94.2471 35.0568 94.5785 35.2893 94.843 35.5881L94.3018 36.1108C94.0934 35.8883 93.8405 35.7121 93.5594 35.5935C93.2782 35.475 92.9753 35.4168 92.6702 35.4228C92.2597 35.4173 91.8547 35.5176 91.4946 35.7141C91.1518 35.9007 90.8677 36.1787 90.674 36.517C90.4798 36.8671 90.3779 37.2606 90.3779 37.6608C90.3779 38.0609 90.4798 38.4545 90.674 38.8045C90.8686 39.1422 91.1524 39.4199 91.4946 39.6074C91.8547 39.8039 92.2597 39.9043 92.6702 39.8987C92.9778 39.9047 93.2832 39.8457 93.5664 39.7255C93.8495 39.6053 94.1039 39.4266 94.3128 39.2013L94.8541 39.7255C94.5875 40.0243 94.2554 40.2576 93.8836 40.4072C93.4823 40.5672 93.0533 40.6464 92.6212 40.6402C92.072 40.6459 91.5305 40.5115 91.048 40.2498Z" fill="white"/>
<path d="M101.442 34.7474V40.5725H100.608V37.9748H97.256V40.5709H96.4229V34.7458H97.256V37.2491H100.608V34.7458L101.442 34.7474Z" fill="white"/>
<path d="M103.672 34.7474H104.497V40.5725H103.672V34.7474Z" fill="white"/>
<path d="M115.199 39.8467V41.8934H114.423V40.5709H109.396V34.7458H110.221V39.8467H113.473V34.7474H114.298V39.8467H115.199Z" fill="white"/>
<path d="M116.725 34.7474H117.558V39.2391L121.009 34.7474H121.776V40.5725H120.951V36.0872L117.492 40.571H116.725V34.7474Z" fill="white"/>
<path d="M129.631 39.4642C129.091 39.9018 128.33 40.1375 127.346 40.1711V40.7866H126.571V40.1711C125.587 40.1322 124.823 39.894 124.282 39.4563C124.014 39.2394 123.802 38.9631 123.661 38.6496C123.52 38.336 123.454 37.9939 123.469 37.6505C123.469 36.8791 123.74 36.2745 124.282 35.8369C124.823 35.3992 125.587 35.161 126.571 35.1221V34.5317H127.341V35.1221C128.32 35.1599 129.08 35.3997 129.621 35.8416C130.163 36.2835 130.434 36.8864 130.434 37.6505C130.437 38.422 130.169 39.0265 129.631 39.4642ZM124.873 38.9777C125.271 39.2926 125.837 39.4741 126.571 39.5224V35.7786C125.826 35.8227 125.258 36.0032 124.865 36.3202C124.68 36.4887 124.532 36.6942 124.43 36.9233C124.329 37.1525 124.277 37.4003 124.278 37.6507C124.279 37.9011 124.332 38.1486 124.435 38.3771C124.537 38.6057 124.687 38.8103 124.873 38.9777ZM129.052 38.9777C129.247 38.816 129.402 38.6112 129.503 38.3794C129.605 38.1477 129.652 37.8954 129.639 37.6427C129.65 37.3915 129.602 37.1411 129.498 36.9119C129.395 36.6827 129.239 36.4811 129.042 36.3233C128.645 36.0085 128.079 35.8269 127.346 35.7786V39.5161C128.091 39.4762 128.659 39.2968 129.052 38.9777Z" fill="white"/>
<path d="M136.2 35.2874C136.406 35.4775 136.57 35.708 136.682 35.9642C136.794 36.2205 136.852 36.4971 136.852 36.7768C136.852 37.0564 136.794 37.333 136.682 37.5893C136.57 37.8456 136.406 38.076 136.2 38.2661C135.768 38.6271 135.173 38.8071 134.417 38.8061H132.975V40.5709H132.14V34.7458H134.417C135.17 34.7469 135.764 34.9274 136.2 35.2874ZM135.6 37.7466C135.732 37.6216 135.837 37.4712 135.908 37.3047C135.98 37.1381 136.017 36.9588 136.017 36.7775C136.017 36.5963 135.98 36.417 135.908 36.2504C135.837 36.0839 135.732 35.9335 135.6 35.8085C135.323 35.5834 134.919 35.4716 134.392 35.4716H132.971V38.0835H134.392C134.916 38.0835 135.323 37.9701 135.6 37.7466Z" fill="white"/>
<path d="M139.544 40.2497C139.082 40.0019 138.697 39.6321 138.432 39.1807C138.166 38.7172 138.026 38.1924 138.026 37.6584C138.026 37.1243 138.166 36.5995 138.432 36.136C138.698 35.685 139.082 35.3153 139.544 35.067C140.035 34.8135 140.58 34.6813 141.132 34.6813C141.685 34.6813 142.23 34.8135 142.721 35.067C143.18 35.3142 143.562 35.683 143.825 36.1328C144.088 36.5988 144.226 37.1245 144.226 37.6591C144.226 38.1938 144.088 38.7195 143.825 39.1855C143.562 39.6347 143.18 40.0029 142.721 40.2497C142.23 40.5042 141.685 40.637 141.132 40.637C140.579 40.637 140.035 40.5042 139.544 40.2497ZM142.291 39.6058C142.629 39.4157 142.908 39.1383 143.101 38.8029C143.295 38.4528 143.397 38.0593 143.397 37.6591C143.397 37.259 143.295 36.8654 143.101 36.5154C142.909 36.1793 142.629 35.9017 142.291 35.7125C141.939 35.5157 141.54 35.4153 141.136 35.4212C140.73 35.416 140.329 35.5164 139.973 35.7125C139.632 35.9 139.349 36.1779 139.156 36.5154C138.962 36.8654 138.86 37.259 138.86 37.6591C138.86 38.0593 138.962 38.4528 139.156 38.8029C139.35 39.1397 139.633 39.4173 139.973 39.6058C140.329 39.8019 140.73 39.9023 141.136 39.8971C141.54 39.903 141.939 39.8026 142.291 39.6058Z" fill="white"/>
<path d="M150.528 38.0536C150.763 38.3692 150.868 38.7626 150.822 39.1531C150.775 39.5436 150.581 39.9016 150.279 40.1537C149.909 40.4319 149.372 40.5709 148.666 40.5709H145.998V34.7458H148.507C149.145 34.7458 149.644 34.8749 150.004 35.1331C150.18 35.2584 150.321 35.4257 150.415 35.6196C150.508 35.8136 150.552 36.028 150.541 36.2431C150.549 36.5305 150.466 36.8132 150.304 37.0507C150.134 37.2797 149.9 37.4534 149.632 37.5498C149.978 37.6153 150.292 37.7923 150.528 38.0536ZM146.823 37.312H148.448C148.776 37.3337 149.102 37.2493 149.378 37.0712C149.484 36.9878 149.568 36.8799 149.623 36.7567C149.678 36.6335 149.702 36.4988 149.693 36.3643C149.701 36.2283 149.675 36.0924 149.619 35.9685C149.562 35.8445 149.476 35.7361 149.368 35.6527C149.094 35.4727 148.769 35.3865 148.442 35.4071H146.817L146.823 37.312ZM149.991 38.9179C150.002 38.7767 149.976 38.6352 149.917 38.5064C149.858 38.3776 149.767 38.2658 149.654 38.1811C149.429 38.0215 149.092 37.9418 148.644 37.9418H146.823V39.9129H148.644C149.542 39.9129 149.991 39.5801 149.991 38.9147V38.9179Z" fill="white"/>
<path d="M152.642 34.7474H153.468V40.5725H152.642V34.7474Z" fill="white"/>
<path d="M162.423 35.2874C162.628 35.4778 162.792 35.7083 162.904 35.9645C163.015 36.2208 163.073 36.4973 163.073 36.7768C163.073 37.0563 163.015 37.3327 162.904 37.589C162.792 37.8452 162.628 38.0757 162.423 38.2661C161.99 38.6271 161.395 38.8071 160.638 38.8061H159.196V40.5709H158.361V34.7458H160.637C161.394 34.7469 161.99 34.9274 162.423 35.2874ZM161.822 37.7466C161.953 37.6216 162.058 37.4712 162.13 37.3047C162.201 37.1381 162.238 36.9588 162.238 36.7775C162.238 36.5963 162.201 36.417 162.13 36.2504C162.058 36.0839 161.953 35.9335 161.822 35.8085C161.544 35.5839 161.141 35.4716 160.613 35.4716H159.193V38.0835H160.613C161.142 38.0835 161.544 37.9701 161.822 37.7466Z" fill="white"/>
<path d="M164.647 34.7474H165.473V40.5725H164.647V34.7474Z" fill="white"/>
<path d="M175.02 34.7474V40.5725H167.707V34.7474H168.534V39.8468H170.959V34.7474H171.777V39.8468H174.207V34.7474H175.02Z" fill="white"/>
<path d="M181.489 39.8467V40.5709H177.254V34.7458H181.372V35.4701H178.089V37.2585H181.014V37.9654H178.089V39.8467H181.489Z" fill="white"/>
<path d="M188.235 34.7474V40.5725H187.402V37.9748H184.051V40.5709H183.216V34.7458H184.051V37.2491H187.402V34.7458L188.235 34.7474Z" fill="white"/>
<path d="M195.489 34.7474V40.5725H194.654V37.9748H191.303V40.5709H190.47V34.7458H191.303V37.2491H194.654V34.7458L195.489 34.7474Z" fill="white"/>
<path d="M201.999 34.7474V40.5725H201.19V38.8738H199.582C199.507 38.875 199.431 38.8718 199.356 38.8644L198.189 40.571H197.305L198.597 38.7242C198.209 38.6061 197.871 38.361 197.639 38.0284C197.409 37.6769 197.292 37.263 197.305 36.8429C197.305 36.1838 197.515 35.6695 197.936 35.3C198.357 34.9306 198.931 34.7464 199.659 34.7474H201.999ZM198.518 37.83C198.772 38.0599 199.15 38.1748 199.64 38.1748H201.19V35.4716H199.699C199.198 35.4716 198.815 35.5881 198.548 35.8211C198.41 35.9494 198.302 36.1071 198.232 36.2826C198.163 36.4581 198.134 36.6469 198.148 36.835C198.135 37.0177 198.161 37.201 198.225 37.3726C198.289 37.5443 198.389 37.7002 198.518 37.83Z" fill="white"/>
</g>
<defs>
<clipPath id="clip0_79_5752">
<rect width="202" height="60" fill="white"/>
</clipPath>
</defs>
</svg>
