<svg width="220" height="64" viewBox="0 0 220 64" fill="none" xmlns="http://www.w3.org/2000/svg">
<g clip-path="url(#clip0_79_4547)">
<path d="M89.0248 19.302V29.8329H85.4764V25.952H82.1951V29.8329H78.645V19.302H82.1951V23.0334H85.4764V19.302H89.0248Z" fill="#1A1A1A"/>
<path d="M99.079 27.9974H95.0738L94.3668 29.8329H90.7546L95.3593 19.302H98.8489L103.454 29.8329H99.7826L99.079 27.9974ZM98.0999 25.4399L97.0772 22.7916L96.0562 25.4399H98.0999Z" fill="#1A1A1A"/>
<path d="M113.202 22.0544H108.668V29.8329H105.183V19.302H113.202V22.0544Z" fill="#1A1A1A"/>
<path d="M124.124 19.3019V29.8328H120.634V22.0543H118.223L118.193 23.2734C118.18 24.5131 118.059 25.7493 117.832 26.9679C117.631 27.9307 117.28 28.6802 116.779 29.2165C116.277 29.7528 115.56 30.0209 114.628 30.0209C114.118 30.0174 113.61 29.952 113.116 29.8261L113.298 26.983C113.426 27.0131 113.557 27.0283 113.689 27.0284C113.858 27.0351 114.026 26.9969 114.175 26.9175C114.324 26.8381 114.45 26.7205 114.539 26.5766C114.756 26.2086 114.892 25.7979 114.937 25.3726C115.007 24.8688 115.057 24.2139 115.088 23.4027L115.224 19.2952L124.124 19.3019Z" fill="#1A1A1A"/>
<path d="M135.98 19.3019V29.8329H132.497V27.3357H131.55L129.939 29.8329H126.216L128.299 26.8236C127.652 26.5339 127.106 26.0602 126.727 25.4616C126.349 24.8339 126.159 24.1115 126.178 23.3793C126.159 22.6145 126.366 21.861 126.772 21.213C127.185 20.5853 127.773 20.0929 128.463 19.7973C129.28 19.4471 130.162 19.2753 131.051 19.2935L135.98 19.3019ZM129.751 23.3188C129.751 24.2145 130.203 24.6623 131.105 24.6623H132.497V22.0392H131.113C130.206 22.0392 129.752 22.4658 129.751 23.3188Z" fill="#1A1A1A"/>
<path d="M150.407 27.0805V31.8934H147.157V29.8329H141.171V31.8934H137.921V27.0805H138.222C138.833 27.0805 139.264 26.6942 139.515 25.9218C139.766 25.1493 139.926 24.0096 139.997 22.5027L140.118 19.2986H149.018V27.0771L150.407 27.0805ZM142.84 25.3877C142.758 25.9808 142.569 26.5542 142.284 27.0805H145.533V22.0543H143.11L143.08 22.8067C143.055 23.6713 142.975 24.5334 142.84 25.3877Z" fill="#1A1A1A"/>
<path d="M155.868 22.6489C155.42 23.1258 155.196 23.765 155.196 24.5666C155.196 25.3682 155.42 26.008 155.868 26.4861C156.099 26.7259 156.378 26.914 156.687 27.0379C156.995 27.1618 157.327 27.2187 157.66 27.2048C158.542 27.2048 159.309 26.794 159.96 25.9722L162.202 27.9723C161.683 28.6527 161 29.1911 160.217 29.5374C159.353 29.9105 158.419 30.0949 157.478 30.0781C156.433 30.0938 155.4 29.854 154.469 29.3795C153.601 28.9357 152.875 28.2581 152.372 27.4231C151.872 26.5548 151.608 25.5703 151.608 24.5683C151.608 23.5663 151.872 22.5819 152.372 21.7135C152.875 20.8786 153.601 20.2009 154.469 19.7571C155.4 19.2813 156.433 19.0408 157.478 19.0568C158.419 19.0406 159.353 19.2255 160.217 19.5992C161 19.9456 161.683 20.4839 162.202 21.1644L159.96 23.1745C159.309 22.3516 158.542 21.9408 157.66 21.9419C157.328 21.9265 156.997 21.9816 156.688 22.1034C156.379 22.2253 156.1 22.4112 155.868 22.6489ZM167.678 25.7707H172.129V23.2131H167.678V21.9788H172.748V19.302H163.208V22.0393H164.189V29.8329H172.945V27.146H167.678V25.7707ZM184.424 21.1677C184.734 21.6321 184.937 22.159 185.019 22.7108C185.102 23.2627 185.061 23.826 184.901 24.3604C184.74 24.8948 184.464 25.3873 184.091 25.8026C183.719 26.218 183.259 26.5459 182.745 26.7632C181.941 27.1011 181.075 27.2653 180.203 27.2451H178.683V29.8329H175.133V22.0393H173.907V19.302H180.203C181.074 19.2819 181.941 19.4456 182.745 19.7823C183.429 20.0681 184.014 20.5502 184.424 21.1677ZM181.43 23.2736C181.44 23.1047 181.413 22.9357 181.351 22.7785C181.288 22.6212 181.192 22.4795 181.069 22.3634C180.827 22.1484 180.466 22.0393 179.986 22.0393H178.691V24.5079H179.986C180.466 24.5079 180.826 24.3987 181.069 24.1838C181.192 24.0676 181.288 23.9259 181.351 23.7687C181.413 23.6114 181.44 23.4424 181.43 23.2736ZM196.279 25.2518C196.598 25.6953 196.762 26.2319 196.745 26.7783C196.759 27.2146 196.664 27.6474 196.468 28.0377C196.273 28.4279 195.983 28.7633 195.625 29.0134C194.878 29.5598 193.822 29.8329 192.458 29.8329H186.831V22.0393H185.704V19.302H192.171C193.475 19.302 194.486 19.5427 195.204 20.0241C195.545 20.2392 195.823 20.5398 196.012 20.896C196.2 21.2522 196.292 21.6516 196.279 22.0544C196.288 22.5205 196.166 22.9798 195.926 23.3794C195.676 23.772 195.329 24.0932 194.918 24.3114C195.456 24.4808 195.93 24.8086 196.279 25.2518ZM190.322 23.3424H191.834C192.416 23.3424 192.707 23.0855 192.707 22.575C192.707 22.0645 192.416 21.7773 191.834 21.7773H190.322V23.3424ZM193.165 26.5012C193.165 25.9605 192.873 25.6884 192.292 25.6884H190.322V27.3442H192.292C192.873 27.3509 193.165 27.0705 193.165 26.5079V26.5012ZM198.761 29.8262H202.252V19.302H198.761V29.8262ZM210.348 27.1931C210.016 27.2073 209.685 27.1511 209.376 27.0281C209.068 26.905 208.789 26.718 208.558 26.4794C208.11 26.0024 207.886 25.3626 207.886 24.5599C207.886 23.7572 208.11 23.118 208.558 22.6422C208.789 22.4035 209.068 22.2165 209.376 22.0934C209.685 21.9704 210.016 21.9142 210.348 21.9284C211.23 21.9284 211.997 22.3393 212.649 23.1611L214.89 21.161C214.371 20.4802 213.689 19.9418 212.905 19.5959C212.041 19.2222 211.108 19.0372 210.167 19.0535C209.121 19.0375 208.088 19.2779 207.157 19.7537C206.289 20.1976 205.563 20.8752 205.06 21.7101C204.56 22.5785 204.297 23.5629 204.297 24.565C204.297 25.567 204.56 26.5514 205.06 27.4198C205.563 28.2547 206.289 28.9323 207.157 29.3762C208.088 29.8506 209.121 30.0904 210.167 30.0748C211.108 30.0915 212.041 29.9072 212.905 29.534C213.689 29.1881 214.371 28.6497 214.89 27.9689L212.649 25.9689C211.996 26.7928 211.228 27.2048 210.346 27.2048L210.348 27.1931Z" fill="url(#paint0_linear_79_4547)"/>
<path d="M38.812 44.2783C36.1321 45.6699 33.0775 46.1683 30.0942 45.7007C27.111 45.233 24.3554 43.8238 22.23 41.6788C20.1045 39.5338 18.7205 36.7655 18.2801 33.7781C17.8397 30.7907 18.366 27.7408 19.7821 25.0737L17.3454 22.6136C15.3155 25.9508 14.4608 29.8713 14.9174 33.7506C15.374 37.6299 17.1157 41.2448 19.8651 44.0194C22.6144 46.7941 26.2132 48.5688 30.0882 49.061C33.9631 49.5531 37.8913 48.7344 41.247 46.7351L38.812 44.2783ZM44.0833 49.5983C39.435 52.6573 33.78 53.7903 28.312 52.7582C22.8441 51.7261 17.9911 48.6096 14.7778 44.0667C12.3141 40.5905 10.963 36.4486 10.903 32.1882C10.843 27.9279 12.077 23.7496 14.4419 20.2054L14.6636 19.9015C14.6636 19.9015 11.7836 17.1642 12.1446 17.6663C5.56509 26.701 6.10751 37.5543 12.059 45.9878C19.9097 57.1098 35.3241 59.7967 46.4713 52.0064L44.0833 49.5983ZM49.4689 55.0325C49.3144 55.1501 49.1548 55.2643 48.9953 55.3768C35.9454 64.5878 17.8341 61.4626 8.62479 48.4144C1.20226 37.8986 1.78665 24.0997 9.12858 14.3245L6.75236 11.9231C-1.70462 22.852 -2.47542 38.4712 5.90095 50.3372C16.1716 64.8884 36.3636 68.3713 50.9147 58.104C51.2288 57.8823 51.5361 57.6573 51.84 57.4323L49.4689 55.0325Z" fill="#1A1A1A"/>
<path d="M45.5511 22.2037C43.0066 18.608 39.2008 16.1028 34.8919 15.1875C30.5831 14.2722 26.0876 15.014 22.3011 17.2649L24.7378 19.7217C27.4176 18.3301 30.4723 17.8317 33.4555 18.2993C36.4387 18.767 39.1943 20.1762 41.3198 22.3212C43.4452 24.4662 44.8292 27.2345 45.2696 30.2219C45.71 33.2093 45.1837 36.2592 43.7677 38.9263L46.2043 41.3881C47.9738 38.4736 48.8545 35.1062 48.7385 31.6985C48.6224 28.2909 47.5147 24.9911 45.5511 22.2037ZM51.4891 18.0055C43.64 6.88512 28.2257 4.19823 17.0768 11.9952L19.4647 14.4017C24.113 11.3437 29.7676 10.2112 35.235 11.2433C40.7024 12.2753 45.555 15.3912 48.7686 19.9333C51.2319 23.4097 52.5827 27.5516 52.6427 31.8118C52.7026 36.072 51.4689 40.2502 49.1045 43.7946L48.8828 44.0985C48.8828 44.0985 51.7628 46.8375 51.4102 46.3337C57.983 37.3057 57.4422 26.4457 51.4891 18.0122V18.0055ZM57.6488 13.6561C47.3782 -0.888384 27.1845 -4.36622 12.6333 5.90105C12.321 6.12496 12.0131 6.34886 11.7097 6.57277L14.0792 8.96746C14.2354 8.85159 14.3949 8.73571 14.5545 8.6316C27.6027 -0.577712 45.714 2.5458 54.925 15.594C62.3475 26.1098 61.7614 39.9103 54.4212 49.694L56.7907 52.0853C65.2527 41.1429 66.0235 25.5254 57.6488 13.6628V13.6561Z" fill="url(#paint1_linear_79_4547)"/>
<path d="M30.5633 41.7912C28.6161 41.4555 26.8121 40.55 25.3796 39.189C23.9471 37.8281 22.9503 36.0729 22.5153 34.1454C22.0804 32.2179 22.2267 30.2048 22.936 28.3605C23.6452 26.5162 24.8854 24.9237 26.4997 23.7843C28.114 22.6449 30.03 22.0098 32.0053 21.9593C33.9806 21.9088 35.9265 22.4453 37.5969 23.5008C39.2673 24.5562 40.5872 26.0834 41.3897 27.889C42.1922 29.6947 42.4411 31.6977 42.1052 33.6449C41.6522 36.2544 40.1826 38.5776 38.0188 40.1048C35.855 41.632 33.1737 42.2385 30.5633 41.7912ZM33.3929 25.3861C32.0957 25.161 30.7609 25.3256 29.5572 25.8592C28.3536 26.3927 27.3352 27.2712 26.6308 28.3836C25.9264 29.496 25.5678 30.7922 25.6001 32.1084C25.6325 33.4246 26.0544 34.7017 26.8126 35.7781C27.5707 36.8545 28.631 37.6819 29.8595 38.1557C31.0879 38.6295 32.4292 38.7283 33.7138 38.4398C34.9984 38.1512 36.1686 37.4882 37.0764 36.5346C37.9841 35.581 38.5887 34.3796 38.8137 33.0823C39.1129 31.3422 38.7095 29.5545 37.6919 28.1116C36.6743 26.6686 35.1258 25.6884 33.3862 25.3861H33.3929Z" fill="url(#paint2_linear_79_4547)"/>
<path d="M83.6174 37.064V43.2774H82.7493V41.4654H81.0364C80.9562 41.4667 80.876 41.4633 80.7962 41.4553L79.5535 43.2757H78.6131L79.9885 41.3109C79.5753 41.1844 79.2164 40.9231 78.9691 40.5687C78.7234 40.1937 78.5991 39.7522 78.6131 39.3042C78.6131 38.6011 78.8398 38.0525 79.2932 37.6584C79.7467 37.2644 80.3574 37.0679 81.1254 37.069L83.6174 37.064ZM79.9129 40.352C80.1838 40.5972 80.5818 40.7198 81.1069 40.7198H82.7493V37.8364H81.1606C80.6277 37.8364 80.2197 37.9607 79.9364 38.2092C79.6665 38.4994 79.5145 38.8798 79.5101 39.2761C79.5058 39.6724 79.6494 40.056 79.9129 40.352Z" fill="#1A1A1A"/>
<path d="M88.1634 40.5418H86.867V43.2757H85.9971V37.0623H86.867V39.7592H88.1802L90.1332 37.0623H91.082L88.8636 40.0699L91.1861 43.2757H90.1785L88.1634 40.5418Z" fill="#1A1A1A"/>
<path d="M92.5447 37.064H93.423V43.2774H92.5447V37.064Z" fill="#1A1A1A"/>
<path d="M96.8958 42.9332C96.4078 42.669 96.0014 42.2764 95.7203 41.798C95.4417 41.3005 95.2954 40.74 95.2954 40.1699C95.2954 39.5998 95.4417 39.0392 95.7203 38.5418C96.0009 38.0625 96.4075 37.6694 96.8958 37.4049C97.4118 37.1281 97.9896 36.9865 98.5751 36.9935C99.03 36.9875 99.4818 37.0702 99.9051 37.237C100.3 37.394 100.653 37.642 100.935 37.9607L100.359 38.5183C100.137 38.2809 99.8676 38.093 99.5684 37.9665C99.2693 37.8401 98.9469 37.778 98.6221 37.7844C98.1853 37.7785 97.7544 37.8855 97.371 38.0951C97.0062 38.2941 96.7039 38.5906 96.4978 38.9515C96.2911 39.3249 96.1826 39.7447 96.1826 40.1715C96.1826 40.5984 96.2911 41.0182 96.4978 41.3916C96.7049 41.7517 97.0069 42.048 97.371 42.248C97.7544 42.4576 98.1853 42.5646 98.6221 42.5587C98.9495 42.5651 99.2746 42.5022 99.5759 42.3739C99.8772 42.2457 100.148 42.0551 100.37 41.8147L100.946 42.374C100.663 42.6927 100.309 42.9415 99.9135 43.1011C99.4865 43.2717 99.0299 43.3562 98.5701 43.3496C97.9856 43.3557 97.4093 43.2123 96.8958 42.9332Z" fill="#1A1A1A"/>
<path d="M107.957 37.0639V43.2774H107.069V40.5065H103.502V43.2757H102.615V37.0623H103.502V39.7324H107.069V37.0623L107.957 37.0639Z" fill="#1A1A1A"/>
<path d="M110.33 37.064H111.209V43.2774H110.33V37.064Z" fill="#1A1A1A"/>
<path d="M122.598 42.5032V44.6863H121.771V43.2757H116.421V37.0623H117.299V42.5032H120.76V37.0639H121.639V42.5032H122.598Z" fill="#1A1A1A"/>
<path d="M124.221 37.064H125.108V41.855L128.781 37.064H129.597V43.2774H128.719V38.4931L125.038 43.2757H124.221V37.064Z" fill="#1A1A1A"/>
<path d="M137.956 42.095C137.382 42.5619 136.572 42.8132 135.525 42.849V43.5056H134.7V42.849C133.652 42.8076 132.84 42.5535 132.264 42.0866C131.979 41.8552 131.753 41.5605 131.603 41.2261C131.453 40.8916 131.383 40.5267 131.399 40.1604C131.399 39.3376 131.687 38.6927 132.264 38.2259C132.84 37.759 133.652 37.5049 134.7 37.4635V36.8337H135.52V37.4635C136.561 37.5038 137.37 37.7596 137.946 38.2309C138.523 38.7022 138.811 39.3454 138.811 40.1604C138.815 40.9833 138.53 41.6282 137.956 42.095ZM132.893 41.5761C133.316 41.912 133.919 42.1056 134.7 42.1571V38.1637C133.908 38.2108 133.302 38.4033 132.885 38.7414C132.687 38.9212 132.53 39.1403 132.422 39.3848C132.314 39.6292 132.259 39.8935 132.26 40.1606C132.261 40.4277 132.318 40.6917 132.427 40.9355C132.536 41.1793 132.695 41.3975 132.893 41.5761ZM137.34 41.5761C137.548 41.4036 137.712 41.1851 137.821 40.9379C137.929 40.6907 137.979 40.4216 137.965 40.152C137.977 39.8841 137.926 39.6171 137.815 39.3726C137.705 39.1281 137.539 38.913 137.33 38.7448C136.907 38.4089 136.305 38.2152 135.525 38.1637V42.1504C136.317 42.1079 136.923 41.9164 137.34 41.5761Z" fill="#1A1A1A"/>
<path d="M144.947 37.6399C145.166 37.8427 145.341 38.0885 145.46 38.3619C145.579 38.6352 145.641 38.9303 145.641 39.2286C145.641 39.5268 145.579 39.8219 145.46 40.0953C145.341 40.3686 145.166 40.6144 144.947 40.8172C144.487 41.2023 143.855 41.3943 143.05 41.3932H141.515V43.2757H140.626V37.0623H143.05C143.851 37.0634 144.484 37.2559 144.947 37.6399ZM144.309 40.263C144.449 40.1297 144.561 39.9693 144.637 39.7917C144.713 39.614 144.752 39.4227 144.752 39.2294C144.752 39.0361 144.713 38.8448 144.637 38.6671C144.561 38.4895 144.449 38.3291 144.309 38.1958C144.014 37.9556 143.584 37.8364 143.023 37.8364H141.511V40.6224H143.023C143.58 40.6224 144.014 40.5015 144.309 40.263Z" fill="#1A1A1A"/>
<path d="M148.506 42.9331C148.014 42.6687 147.605 42.2743 147.322 41.7928C147.039 41.2984 146.89 40.7386 146.89 40.169C146.89 39.5993 147.039 39.0396 147.322 38.5451C147.605 38.064 148.014 37.6697 148.506 37.4048C149.028 37.1345 149.608 36.9934 150.196 36.9934C150.784 36.9934 151.364 37.1345 151.886 37.4048C152.375 37.6686 152.782 38.0619 153.062 38.5417C153.341 39.0388 153.488 39.5995 153.488 40.1698C153.488 40.7401 153.341 41.3008 153.062 41.7979C152.782 42.277 152.375 42.6698 151.886 42.9331C151.364 43.2045 150.784 43.3462 150.196 43.3462C149.608 43.3462 149.028 43.2045 148.506 42.9331ZM151.429 42.2463C151.788 42.0434 152.086 41.7476 152.291 41.3898C152.498 41.0164 152.606 40.5966 152.606 40.1698C152.606 39.743 152.498 39.3232 152.291 38.9498C152.087 38.5913 151.789 38.2952 151.429 38.0933C151.054 37.8835 150.63 37.7763 150.2 37.7827C149.768 37.7771 149.341 37.8842 148.963 38.0933C148.599 38.2934 148.298 38.5898 148.093 38.9498C147.886 39.3232 147.778 39.743 147.778 40.1698C147.778 40.5966 147.886 41.0164 148.093 41.3898C148.299 41.7491 148.6 42.0452 148.963 42.2463C149.341 42.4554 149.768 42.5625 150.2 42.5569C150.63 42.5633 151.054 42.4561 151.429 42.2463Z" fill="#1A1A1A"/>
<path d="M160.196 40.5905C160.446 40.9271 160.558 41.3468 160.508 41.7633C160.459 42.1799 160.252 42.5618 159.93 42.8307C159.537 43.1273 158.965 43.2757 158.214 43.2757H155.374V37.0623H158.044C158.724 37.0623 159.255 37.2 159.638 37.4754C159.825 37.6089 159.975 37.7874 160.075 37.9943C160.175 38.2012 160.221 38.4299 160.209 38.6593C160.218 38.9658 160.13 39.2674 159.957 39.5208C159.777 39.765 159.528 39.9503 159.242 40.0531C159.61 40.1231 159.945 40.3118 160.196 40.5905ZM156.253 39.7995H157.982C158.331 39.8227 158.678 39.7326 158.971 39.5426C159.084 39.4537 159.174 39.3385 159.233 39.2071C159.291 39.0758 159.317 38.9321 159.307 38.7886C159.315 38.6435 159.288 38.4986 159.228 38.3664C159.168 38.2342 159.076 38.1186 158.961 38.0295C158.67 37.8376 158.324 37.7457 157.976 37.7676H156.246L156.253 39.7995ZM159.625 41.5124C159.635 41.3618 159.608 41.2108 159.545 41.0735C159.483 40.9362 159.386 40.8168 159.265 40.7265C159.026 40.5563 158.667 40.4712 158.19 40.4712H156.253V42.5737H158.19C159.147 42.5737 159.625 42.2188 159.625 41.5091V41.5124Z" fill="#1A1A1A"/>
<path d="M162.446 37.064H163.324V43.2774H162.446V37.064Z" fill="#1A1A1A"/>
<path d="M172.854 37.6399C173.072 37.843 173.246 38.0889 173.365 38.3622C173.484 38.6355 173.546 38.9304 173.546 39.2286C173.546 39.5267 173.484 39.8216 173.365 40.0949C173.246 40.3683 173.072 40.6141 172.854 40.8172C172.393 41.2023 171.76 41.3943 170.955 41.3932H169.42V43.2757H168.531V37.0623H170.953C171.759 37.0634 172.393 37.2559 172.854 37.6399ZM172.214 40.263C172.354 40.1297 172.466 39.9693 172.542 39.7917C172.618 39.614 172.657 39.4227 172.657 39.2294C172.657 39.0361 172.618 38.8448 172.542 38.6671C172.466 38.4895 172.354 38.3291 172.214 38.1958C171.919 37.9562 171.49 37.8364 170.928 37.8364H169.416V40.6224H170.928C171.49 40.6224 171.919 40.5015 172.214 40.263Z" fill="#1A1A1A"/>
<path d="M175.222 37.064H176.1V43.2774H175.222V37.064Z" fill="#1A1A1A"/>
<path d="M186.26 37.064V43.2774H178.478V37.064H179.358V42.5032H181.939V37.064H182.809V42.5032H185.395V37.064H186.26Z" fill="#1A1A1A"/>
<path d="M193.145 42.5032V43.2757H188.638V37.0623H193.021V37.8347H189.526V39.7424H192.64V40.4964H189.526V42.5032H193.145Z" fill="#1A1A1A"/>
<path d="M200.324 37.0639V43.2774H199.438V40.5065H195.871V43.2757H194.982V37.0623H195.871V39.7324H199.438V37.0623L200.324 37.0639Z" fill="#1A1A1A"/>
<path d="M208.044 37.0639V43.2774H207.156V40.5065H203.589V43.2757H202.702V37.0623H203.589V39.7324H207.156V37.0623L208.044 37.0639Z" fill="#1A1A1A"/>
<path d="M214.973 37.064V43.2774H214.111V41.4654H212.4C212.32 41.4667 212.24 41.4633 212.16 41.4554L210.917 43.2757H209.977L211.352 41.3059C210.939 41.1799 210.58 40.9184 210.333 40.5636C210.087 40.1887 209.963 39.7472 209.977 39.2991C209.977 38.5961 210.201 38.0475 210.649 37.6534C211.096 37.2593 211.708 37.0629 212.482 37.064H214.973ZM211.268 40.352C211.539 40.5972 211.94 40.7198 212.462 40.7198H214.111V37.8364H212.524C211.992 37.8364 211.583 37.9607 211.3 38.2093C211.153 38.3461 211.038 38.5143 210.964 38.7015C210.89 38.8886 210.859 39.09 210.874 39.2907C210.86 39.4856 210.888 39.6811 210.956 39.8642C211.024 40.0472 211.13 40.2136 211.268 40.352Z" fill="#1A1A1A"/>
</g>
<defs>
<linearGradient id="paint0_linear_79_4547" x1="151.611" y1="24.5666" x2="214.889" y2="24.5666" gradientUnits="userSpaceOnUse">
<stop stop-color="#58A0FF"/>
<stop offset="0.45" stop-color="#5888FF"/>
<stop offset="1" stop-color="#5966FF"/>
</linearGradient>
<linearGradient id="paint1_linear_79_4547" x1="11.7097" y1="26.0393" x2="63.5499" y2="26.0393" gradientUnits="userSpaceOnUse">
<stop stop-color="#58A0FF"/>
<stop offset="0.45" stop-color="#5888FF"/>
<stop offset="1" stop-color="#5966FF"/>
</linearGradient>
<linearGradient id="paint2_linear_79_4547" x1="22.2642" y1="31.9471" x2="42.2445" y2="31.9471" gradientUnits="userSpaceOnUse">
<stop stop-color="#58A0FF"/>
<stop offset="0.45" stop-color="#5888FF"/>
<stop offset="1" stop-color="#5966FF"/>
</linearGradient>
<clipPath id="clip0_79_4547">
<rect width="220" height="64" fill="white"/>
</clipPath>
</defs>
</svg>
