<svg width="44" height="44" viewBox="0 0 44 44" fill="none" xmlns="http://www.w3.org/2000/svg">
<path opacity="0.2" d="M14 1.5L43.5 8L41.5 17L33.5 15L31.5 17L7.5 12L8.5 6.5L10.5 2.5L14 1.5Z" fill="#5888FF"/>
<path d="M12.6325 1.14065C11.0206 1.63411 9.39215 3.03224 8.81645 4.39747C8.43813 5.30215 8.35589 5.61467 7.08935 11.2072C6.48075 13.8225 6.54654 14.464 7.45122 15.4345C7.97757 15.9937 8.30654 16.1253 10.0336 16.5365C12.797 17.1945 12.7477 17.1616 12.7477 17.7373C12.7641 18.9051 13.5207 20.1717 14.557 20.7638C14.8695 20.9448 15.8236 21.2573 16.6624 21.4547C17.4849 21.6521 18.1757 21.8494 18.1757 21.8823C18.1757 22.0304 15.8564 31.258 15.692 31.7679L15.511 32.3107H11.0864H6.66168V31.6692C6.66168 30.6165 6.25047 30.2876 4.86878 30.2053L3.70093 30.1395V29.4322C3.70093 28.9223 3.58579 28.6263 3.28972 28.2973C2.89495 27.8696 2.82916 27.8532 1.44748 27.9025L0 27.9519V34.9425V41.9332L1.33234 41.9825C2.58243 42.0319 2.71402 41.999 3.19103 41.5878C3.63514 41.2259 3.70093 41.0614 3.70093 40.3541V39.5481H4.85234C6.29981 39.5481 6.66168 39.2685 6.66168 38.15V37.4098H11.514C17.3039 37.4098 17.6329 37.344 19.1626 35.7814C20.2318 34.7122 20.1824 34.8603 21.9753 27.7051C22.6168 25.1227 23.1596 23.0008 23.1761 22.9844C23.209 22.935 26.877 23.7575 29.6239 24.4154C30.3641 24.5964 31.2852 24.7444 31.6636 24.7444C33.0946 24.7444 34.1144 23.8891 34.5585 22.31C34.7065 21.8001 34.8875 21.3066 34.9533 21.2244C35.0355 21.1586 35.4467 21.027 35.8744 20.9448C37.6344 20.6158 39.7069 19.1683 40.48 17.7537C40.6445 17.4248 40.9077 17.178 41.0393 17.1945C42.1742 17.2932 42.2729 17.1122 43.1776 13.1481C43.6381 11.1907 44 9.33205 44 9.03598C44 8.42738 43.523 7.73654 42.8815 7.40757C42.6348 7.29243 41.8452 7.06215 41.1215 6.89766C38.2101 6.25616 38.1607 6.22327 38.1607 5.81205C38.1772 5.59822 38.2265 5.17056 38.2923 4.87448C38.4733 3.96981 37.9305 3.65728 35.4796 3.26252C34.6901 3.14738 34.3776 3.41056 34.2131 4.34813C34.1473 4.72644 33.9993 5.07187 33.8841 5.10476C33.7525 5.15411 32.1899 4.84158 30.397 4.41392C28.6041 4.0027 26.3671 3.47635 25.4131 3.26252C24.4591 3.04869 22.9129 2.68682 21.9589 2.45654C21.0049 2.22626 19.5245 1.88084 18.6692 1.6999C17.8138 1.51897 16.6953 1.25579 16.2019 1.1242C15.0998 0.844574 13.5536 0.844574 12.6325 1.14065ZM16.8105 2.20981C18.0112 2.47298 19.0475 2.70327 19.0804 2.70327C19.2284 2.70327 19.1462 3.29542 18.8994 4.0027C18.6692 4.66065 18.6856 4.75934 18.8994 4.98962C19.1297 5.20345 19.1955 5.20345 19.3929 5.00607C19.508 4.87448 19.7383 4.36457 19.9028 3.88757C20.1495 3.13093 20.2318 3.01579 20.5443 3.09803C20.7252 3.14738 21.2022 3.22962 21.597 3.29542C21.9753 3.36121 22.2879 3.4599 22.2879 3.50925C22.2879 3.57504 22.1727 4.01915 22.0411 4.47971C21.7615 5.41729 21.8108 5.66401 22.2879 5.66401C22.5017 5.66401 22.6662 5.43373 22.8636 4.79224C23.028 4.33168 23.1925 3.88757 23.2583 3.82177C23.357 3.72308 25.1993 4.08495 25.3473 4.23299C25.3802 4.26588 25.2979 4.61131 25.1664 5.00607C24.8538 5.87785 24.8538 6.25616 25.1499 6.3713C25.4624 6.50289 25.8078 6.05878 26.0546 5.20345C26.2684 4.44682 26.5151 4.36457 27.4856 4.66065C27.7488 4.74289 28.489 4.92383 29.114 5.07187C29.7555 5.20345 31.5649 5.63112 33.1439 5.99298C34.723 6.35485 36.6146 6.79897 37.3383 6.96346C41.3353 7.90102 42.4538 8.18065 42.6677 8.34513C43.1118 8.72345 43.1611 9.23336 42.8486 10.5328C42.6019 11.6513 41.8617 14.8423 41.615 15.9773C41.5656 16.1911 41.4505 16.3556 41.3682 16.3556C41.286 16.3556 39.6082 15.9444 37.6508 15.4509C35.677 14.9575 33.8512 14.5463 33.588 14.5463C33.0946 14.5463 32.7163 14.8588 31.6307 16.1911L31.0385 16.9149L28.9989 16.4543C27.8804 16.1911 26.5645 15.895 26.071 15.7799C25.5776 15.6648 23.1761 15.1055 20.7252 14.5463C18.2908 13.987 15.511 13.3455 14.557 13.1317C9.32635 11.9474 8.07626 11.6184 8.02692 11.4704C7.99402 11.3717 8.14206 10.5328 8.37234 9.59523C8.58617 8.65766 8.86579 7.44046 8.98094 6.89766C9.54019 4.18364 10.9877 2.47298 13.1424 1.94663C14.3267 1.667 14.3596 1.667 16.8105 2.20981ZM36.4665 4.38102L37.4206 4.57841L37.3219 5.17056C37.2561 5.48308 37.1738 5.7956 37.108 5.8614C37.0587 5.92719 36.5488 5.8614 35.9731 5.71336C34.9204 5.45018 34.8381 5.35149 35.052 4.54551C35.1671 4.11785 35.2 4.11785 36.4665 4.38102ZM8.88224 12.7369C9.24411 12.8356 10.3626 13.0823 11.3495 13.3126C12.3529 13.5429 14.7544 14.0857 16.6953 14.5463C18.6363 14.9904 21.0542 15.5496 22.0411 15.7799C23.0445 16.0102 25.4131 16.553 27.3047 16.9806C31.2523 17.9018 31.4333 17.8853 32.3215 16.8162C33.4893 15.4016 33.5222 15.3851 34.3118 15.5496C35.5125 15.8128 35.4632 15.7306 35.1013 17.0464C34.0979 20.7145 33.9335 21.1586 33.5716 21.0599C33.2591 20.9612 31.9761 20.6651 30.2654 20.2868C29.2621 20.0565 28.012 19.7769 23.1925 18.6584C18.0441 17.4577 17.0243 17.2274 16.1196 17.03C11.0864 15.9279 8.68486 15.3029 8.32299 14.9904C7.78019 14.4969 7.46766 13.6745 7.5828 13.0823C7.69794 12.5231 7.84598 12.4902 8.88224 12.7369ZM38.3252 16.553C39.1806 16.7668 39.8879 16.9642 39.8879 17.03C39.8879 17.2932 38.72 18.5597 37.9963 19.0861C37.2396 19.6124 35.6112 20.2375 35.3151 20.1059C35.2493 20.073 35.4467 19.1519 35.7593 18.0334C36.1705 16.5201 36.3679 16.0266 36.5488 16.0924C36.6639 16.1418 37.4699 16.3556 38.3252 16.553ZM16.7776 18.0992C17.4191 18.2472 18.1922 18.4281 18.5047 18.4939C18.8172 18.5597 20.7417 19.0038 22.7813 19.4808C24.8209 19.9578 26.9593 20.4513 27.5514 20.5829C28.1436 20.698 29.2456 20.9612 30.0187 21.1421C34.065 22.0962 33.6703 21.9481 33.5551 22.4251C33.4236 22.9679 32.9136 23.5107 32.2886 23.7739C31.8938 23.9384 31.5813 23.922 30.545 23.6752C29.8542 23.5272 28.5383 23.2311 27.6336 23.0173C25.7256 22.5896 22.4852 21.8494 21.0542 21.5369C14.9024 20.1552 14.6886 20.0894 14.0964 19.1025C13.7346 18.5104 13.5207 17.7208 13.6523 17.5235C13.6852 17.4412 14.1622 17.4906 14.6721 17.6057C15.1985 17.7373 16.1525 17.9676 16.7776 18.0992ZM20.972 22.4251C22.1069 22.7048 22.2056 22.7541 22.1563 23.116C22.0082 24.07 19.4751 33.824 19.2613 34.2352C19.1297 34.482 18.735 34.9754 18.3895 35.3044C17.2546 36.4064 17.123 36.4229 11.5963 36.4229H6.66168V34.8603V33.2977H10.9383C16.1032 33.2977 16.2183 33.2648 16.5802 31.9489C16.7118 31.4719 17.3368 29.0539 17.9454 26.5866C19.2284 21.4876 18.8994 21.9317 20.972 22.4251ZM2.68112 34.8932L2.71402 41.0285L2.3357 41.1272C2.10542 41.1765 1.69421 41.193 1.38168 41.1601L0.82243 41.1107L0.773084 35.107C0.756636 31.8008 0.773084 29.0046 0.82243 28.8894C0.871776 28.7414 1.16785 28.6921 1.76 28.7249L2.63178 28.7743L2.68112 34.8932ZM5.67477 34.9425V38.7257H4.68785H3.70093V34.9425V31.1593H4.68785H5.67477V34.9425Z" fill="#18181B"/>
<path d="M38.1441 9.56235C37.9467 9.59525 37.5848 9.84198 37.3381 10.1052C36.3841 11.1085 36.746 12.8027 38.0289 13.3455C39.2626 13.8554 40.7101 12.9014 40.7101 11.5691C40.7101 10.0887 39.6574 9.26627 38.1441 9.56235ZM39.5587 10.7631C40.2331 11.4375 39.7232 12.5724 38.7527 12.5724C38.2592 12.5724 37.5848 11.9474 37.5848 11.5033C37.5848 11.3881 37.7329 11.1085 37.9303 10.8618C38.3415 10.3354 39.0817 10.2861 39.5587 10.7631Z" fill="#18181B"/>
</svg>
