<svg width="44" height="44" viewBox="0 0 44 44" fill="none" xmlns="http://www.w3.org/2000/svg">
<path opacity="0.2" d="M6 4H27V32.5H20.5L18.5 30.5L15 29.5L12 32L11 35.5L14 39L17.5 39.5L21 37H27L26.5 43L7.04872 43.9488C6.47798 43.9767 6 43.5214 6 42.95V4Z" fill="#5888FF"/>
<path d="M6.134 0.377609C4.91907 1.18209 5.00116 -0.443287 5.00116 22C5.00116 44.4433 4.91907 42.8179 6.134 43.6224L6.69221 44H16.1489C25.2444 44 25.6221 43.9836 26.131 43.6716C27.0833 43.097 27.231 42.5716 27.2967 39.7642L27.3624 37.2687H29.8907C32.7146 37.2687 33.2236 37.1537 33.9459 36.3C34.734 35.3642 34.734 33.9358 33.9459 33C33.24 32.1463 32.6653 32.0149 29.8579 32.0149H27.3295L27.2967 16.8612C27.2474 2.64328 27.231 1.69104 26.9519 1.18209C26.7877 0.886566 26.4265 0.492535 26.131 0.328358C25.6221 0.0164146 25.2444 -3.8147e-06 16.1489 -3.8147e-06H6.69221L6.134 0.377609ZM25.9504 1.36269C26.2788 1.7403 26.3444 2.00298 26.3444 2.88955V3.9403H16.1653H5.98624V2.82388C5.98624 1.87164 6.03549 1.64179 6.36385 1.36269C6.56086 1.16567 6.87281 0.985073 7.0534 0.935818C7.234 0.886566 11.4698 0.870148 16.4609 0.870148L25.5564 0.902985L25.9504 1.36269ZM26.3116 18.4209L26.3444 32.0149H23.5862H20.828L20.5489 31.5224C20.2698 31.0627 19.2355 30.1597 18.5459 29.7821C17.8728 29.4209 16.4609 29.191 15.525 29.2896C13.5713 29.5194 11.7818 30.8985 11.0758 32.7701C10.7803 33.5582 10.731 33.9687 10.7803 34.9701C10.8788 36.4642 11.3221 37.4985 12.3236 38.4836C13.4728 39.6493 14.3265 39.9776 16.1653 39.9776C17.5937 39.9776 17.8071 39.9284 18.5952 39.4851C19.0877 39.2224 19.843 38.6149 20.2698 38.1388L21.0743 37.2687H23.7012H26.3444V39.7149C26.3444 42.0791 26.328 42.194 25.9504 42.6373L25.5564 43.097H16.1982H6.83997L6.4131 42.703L5.98624 42.309V23.5269V4.76119L16.1325 4.79403L26.2624 4.84328L26.3116 18.4209ZM17.9877 30.5701C18.4146 30.7507 18.9892 31.1448 19.3012 31.4567L19.843 32.0149H18.2012C16.8221 32.0149 16.4773 32.0806 15.9191 32.3925C14.1788 33.3776 14.0803 35.6104 15.7385 36.8418C16.1161 37.1209 16.5101 37.203 18.0206 37.2687L19.8594 37.3507L19.2191 37.9746C17.0519 40.0269 13.6041 39.4358 12.143 36.7597C11.7653 36.0373 11.6833 35.6925 11.6668 34.7403C11.6668 33.3448 12.0609 32.3597 12.9474 31.4896C14.3594 30.1104 16.1325 29.7985 17.9877 30.5701ZM33.043 33.4104C33.6833 33.9522 33.831 34.6254 33.4862 35.3642C32.9609 36.4478 32.9937 36.4478 24.5385 36.4478C16.6743 36.4478 16.6579 36.4478 15.8862 35.7418C15.3116 35.2164 15.3609 34.1 15.9847 33.4761L16.4609 33H24.5056H32.5504L33.043 33.4104Z" fill="#18181B"/>
<path d="M9.12179 8.30748C7.69343 9.50599 8.49791 11.6567 10.3696 11.6567C11.7979 11.6567 12.6516 10.1627 11.9785 8.86569C11.4531 7.84778 9.99194 7.56868 9.12179 8.30748ZM10.9113 8.99704C11.6173 9.57166 11.1576 10.8358 10.2382 10.8358C9.79493 10.8358 9.26955 10.2612 9.26955 9.76868C9.26955 9.27614 9.79493 8.70151 10.2382 8.70151C10.4024 8.70151 10.7143 8.83286 10.9113 8.99704Z" fill="#18181B"/>
<path d="M15.1474 8.14331C13.5057 9.02987 14.1952 11.6567 16.0668 11.6567C17.3146 11.6567 18.0042 10.9672 18.0042 9.71942C18.0042 9.04629 17.9221 8.88211 17.4131 8.42241C16.7564 7.81495 15.9355 7.71644 15.1474 8.14331ZM16.8221 9.02987C17.0027 9.21047 17.1504 9.53883 17.1504 9.76868C17.1504 10.2612 16.6251 10.8358 16.1654 10.8358C15.9683 10.8358 15.64 10.6552 15.4101 10.4254C14.934 9.94928 14.9833 9.47316 15.5415 8.98062C15.9848 8.61942 16.4116 8.61942 16.8221 9.02987Z" fill="#18181B"/>
<path d="M20.6637 8.43883C20.1876 8.91495 20.1055 9.11196 20.1055 9.76868C20.1055 10.4254 20.1876 10.6224 20.6637 11.0985C21.1398 11.5746 21.3368 11.6567 21.9771 11.6567C23.9144 11.6567 24.604 9.01345 22.8965 8.12689C22.0756 7.70002 21.304 7.79853 20.6637 8.43883ZM22.6502 9.11196C22.8801 9.32539 23.0607 9.62092 23.0607 9.76868C23.0607 10.1463 22.3219 10.8358 21.9114 10.8358C21.4682 10.8358 20.9264 10.2612 20.9264 9.80151C20.9264 9.32539 21.4846 8.70151 21.9279 8.70151C22.1085 8.70151 22.4368 8.88211 22.6502 9.11196Z" fill="#18181B"/>
<path d="M9.23669 15.3836C8.18594 16.0403 8.13669 17.6329 9.12176 18.4538C10.3039 19.4553 12.2247 18.5523 12.2247 16.9926C12.2247 16.4344 11.8307 15.6791 11.371 15.3672C10.8949 15.0224 9.7949 15.0388 9.23669 15.3836ZM10.9113 16.2209C11.6173 16.7956 11.1576 18.0597 10.2382 18.0597C9.7949 18.0597 9.26952 17.4851 9.26952 16.9926C9.26952 16.5 9.7949 15.9254 10.2382 15.9254C10.4024 15.9254 10.7143 16.0568 10.9113 16.2209Z" fill="#18181B"/>
<path d="M14.9832 15.4821C13.4892 16.7463 14.2772 18.8806 16.2474 18.8806C16.6742 18.8806 16.9862 18.7329 17.413 18.3388C17.922 17.8791 18.0041 17.7149 18.0041 17.0418C18.0041 15.7776 17.3145 15.1045 16.0339 15.1045C15.6399 15.1045 15.2623 15.2358 14.9832 15.4821ZM16.822 16.2537C17.0026 16.4343 17.1503 16.7627 17.1503 16.9926C17.1503 17.4851 16.625 18.0597 16.1817 18.0597C15.7877 18.0597 15.2459 17.5836 15.0981 17.1239C15.0324 16.8448 15.1145 16.6314 15.41 16.3358C15.9026 15.8433 16.3787 15.8105 16.822 16.2537Z" fill="#18181B"/>
<path d="M20.6637 15.6626C20.1876 16.1388 20.1055 16.3358 20.1055 16.9925C20.1055 17.6492 20.1876 17.8462 20.6637 18.3223C21.304 18.9626 22.0756 19.0611 22.8965 18.6343C24.604 17.7477 23.9144 15.1044 21.9771 15.1044C21.3368 15.1044 21.1398 15.1865 20.6637 15.6626ZM22.6502 16.3358C22.8801 16.5492 23.0607 16.8447 23.0607 16.9925C23.0607 17.3537 22.3219 18.0597 21.9279 18.0597C21.4846 18.0597 20.9264 17.4358 20.9264 16.9597C20.9264 16.5 21.4682 15.9253 21.9114 15.9253C22.1085 15.9253 22.4368 16.1059 22.6502 16.3358Z" fill="#18181B"/>
<path d="M9.41753 22.4926C7.77574 23.3627 8.21903 25.809 10.0414 26.0552C12.3071 26.3508 13.0951 23.2806 10.9772 22.394C10.2877 22.0985 10.1399 22.1149 9.41753 22.4926ZM10.8459 23.2806C11.519 23.7239 11.4205 24.8075 10.6653 25.1523C10.3041 25.3164 10.1728 25.2836 9.79515 25.0045C9.25336 24.6105 9.15485 24.0851 9.49962 23.5433C9.76231 23.1493 10.4519 23.0179 10.8459 23.2806Z" fill="#18181B"/>
<path d="M15.3938 22.4104C14.8192 22.6567 14.1953 23.5104 14.1953 24.0686C14.1953 25.3 15.1968 26.2194 16.3789 26.0552C18.267 25.7925 18.6281 23.2477 16.9043 22.4269C16.2476 22.1149 16.0834 22.1149 15.3938 22.4104ZM16.9699 23.6582C17.2983 24.2492 17.1013 24.8731 16.4938 25.1194C16.0834 25.2836 15.9356 25.2836 15.5908 25.0537C15.361 24.906 15.1804 24.7254 15.1804 24.6433C15.1804 24.5612 15.1476 24.3806 15.0983 24.2657C15.049 24.1343 15.164 23.8224 15.361 23.5761C15.8207 22.9851 16.6087 23.0343 16.9699 23.6582Z" fill="#18181B"/>
<path d="M21.1069 22.4761C19.4815 23.3463 19.8756 25.8089 21.6815 26.0552C22.995 26.2194 24.0129 25.2343 23.8323 23.9373C23.7338 23.1821 23.3562 22.706 22.6173 22.394C21.9442 22.0985 21.78 22.1149 21.1069 22.4761ZM22.7323 23.5597C23.0606 23.9045 23.0935 24.0522 22.9621 24.4134C22.88 24.6597 22.6173 24.9716 22.3711 25.103C21.9606 25.3328 21.895 25.3328 21.4681 25.0209C20.8935 24.594 20.795 23.9373 21.2382 23.494C21.6979 23.0343 22.2562 23.0672 22.7323 23.5597Z" fill="#18181B"/>
<path d="M34.3892 9.1284C34.3892 9.27617 34.6683 9.73587 35.0295 10.1627C35.8011 11.0821 36.7041 12.7239 37.1145 13.9553C37.3608 14.6612 37.4265 15.3344 37.4265 16.9926C37.4265 18.8971 37.3772 19.2583 36.9832 20.3254C36.4907 21.7045 35.7683 22.9523 34.9474 23.8717C34.3235 24.5612 34.2414 24.906 34.6683 25.0702C35.0951 25.2344 36.4414 23.609 37.2623 21.918C37.7712 20.8836 38.0668 19.9971 38.2474 18.9792C38.5593 17.1732 38.5593 16.812 38.2474 15.0553C37.8862 12.9538 37.0817 11.2463 35.6369 9.4896C35.0951 8.83288 34.3892 8.63587 34.3892 9.1284Z" fill="#18181B"/>
<path d="M32.304 11.115C31.9428 11.2463 32.0577 11.6732 32.5995 12.2806C32.895 12.609 33.3547 13.3642 33.6338 13.9553C34.11 14.9567 34.1428 15.1373 34.1428 16.9926C34.1428 18.7985 34.11 19.0448 33.6831 19.9314C33.4368 20.4732 32.9607 21.2284 32.6488 21.6224C32.0413 22.3612 32.0085 22.8209 32.5502 22.8209C32.8786 22.8209 33.8308 21.6553 34.3562 20.5881C35.7517 17.8299 35.3577 14.2836 33.3876 11.8209C32.8458 11.1478 32.6323 11 32.304 11.115Z" fill="#18181B"/>
<path d="M29.9565 13.5612C29.7759 13.7582 29.8252 13.9224 30.252 14.5135C30.8759 15.3836 31.1878 16.5164 31.0401 17.4851C30.9416 18.2896 30.449 19.3567 30.055 19.6851C29.7266 19.9642 29.7266 20.2597 30.0386 20.5224C30.252 20.703 30.3834 20.6373 30.8431 20.1448C32.2057 18.7 32.3207 15.8269 31.0729 14.0702C30.6132 13.4299 30.2028 13.2493 29.9565 13.5612Z" fill="#18181B"/>
</svg>
