<svg width="44" height="44" viewBox="0 0 44 44" fill="none" xmlns="http://www.w3.org/2000/svg">
<rect opacity="0.2" x="10" y="10" width="24" height="24" fill="#5888FF"/>
<path d="M8.32388 0.0985069C8.25821 0.164177 8.20896 1.01791 8.20896 2.00298V3.77612H6.64925C4.1209 3.77612 3.77612 4.1209 3.77612 6.64925V8.19254L1.93731 8.24179C0.213433 8.29104 0.0820896 8.30746 0.0820896 8.6194C0.0820896 8.91492 0.213433 8.94776 1.88806 9.02985L3.69403 9.11194L3.74328 10.8687L3.79254 12.6418H1.97015C0.492537 12.6418 0.131343 12.691 0.0656716 12.8881C-0.164179 13.4627 0.295522 13.6269 2.06866 13.6269H3.77612V15.3507V17.0582L1.93731 17.1075C0.279105 17.1567 0.0820896 17.1896 0.0328358 17.4687C-0.0656716 17.9448 0.295522 18.0597 2.10149 18.0597H3.77612V19.7836V21.5075H2.15075C0.31194 21.5075 0 21.5731 0 22C0 22.4269 0.31194 22.4925 2.15075 22.4925H3.77612V24.2164V25.9403H2.10149C0.295522 25.9403 -0.0656716 26.0552 0.0328358 26.5313C0.0820896 26.8104 0.279105 26.8433 1.93731 26.8925L3.77612 26.9418V28.6493V30.3731H2.06866C0.295522 30.3731 -0.164179 30.5373 0.0656716 31.1119C0.131343 31.309 0.492537 31.3582 1.97015 31.3582H3.79254L3.74328 33.1149L3.69403 34.8881L1.88806 34.9701C0.213433 35.0522 0.0820896 35.0851 0.0820896 35.3806C0.0820896 35.6925 0.213433 35.709 1.93731 35.7582L3.77612 35.8075V37.3672C3.77612 39.8791 4.1209 40.2239 6.64925 40.2239H8.19254L8.24179 42.0627C8.29105 43.7866 8.30746 43.9179 8.6194 43.9179C8.91493 43.9179 8.94776 43.7866 9.02985 42.1119L9.11194 40.306L10.8851 40.2567L12.6418 40.2075V42.0299C12.6418 43.5075 12.691 43.8687 12.8881 43.9343C13.4627 44.1642 13.6269 43.7045 13.6269 41.9313V40.2239H15.3507H17.0582L17.1075 42.0627C17.1567 43.7209 17.1896 43.9179 17.4687 43.9672C17.9448 44.0657 18.0597 43.7045 18.0597 41.8985V40.2239H19.7836H21.5075V41.8493C21.5075 43.6881 21.5731 44 22 44C22.4269 44 22.4925 43.6881 22.4925 41.8493V40.2239H24.2164H25.9403V41.8985C25.9403 43.7045 26.0552 44.0657 26.5313 43.9672C26.8104 43.9179 26.8433 43.7209 26.8925 42.0627L26.9418 40.2239H28.6493H30.3731V41.9313C30.3731 43.7045 30.5373 44.1642 31.1119 43.9343C31.309 43.8687 31.3582 43.5075 31.3582 42.0299V40.2075L33.1313 40.2567L34.8881 40.306L34.9701 42.1119C35.0522 43.7866 35.0851 43.9179 35.3806 43.9179C35.6925 43.9179 35.709 43.7866 35.7582 42.0791L35.8075 40.2239H37.3672C39.8791 40.2239 40.2239 39.8791 40.2239 37.3507V35.8075L42.0791 35.7582C43.7866 35.709 43.9179 35.6925 43.9179 35.3806C43.9179 35.0851 43.7866 35.0522 42.1119 34.9701L40.306 34.8881L40.2567 33.1149L40.2075 31.3582H42.0299C43.5075 31.3582 43.8687 31.309 43.9343 31.1119C44.1642 30.5373 43.7045 30.3731 41.9313 30.3731H40.2239V28.6493V26.9418L42.0627 26.8925C43.7209 26.8433 43.9179 26.8104 43.9672 26.5313C44.0657 26.0552 43.7045 25.9403 41.9149 25.9403H40.2239V24.2164V22.4925H41.8493C43.6881 22.4925 44 22.4269 44 22C44 21.5731 43.6881 21.5075 41.8493 21.5075H40.2239V19.7836V18.0597H41.9149C43.7045 18.0597 44.0657 17.9448 43.9672 17.4687C43.9179 17.1896 43.7209 17.1567 42.0627 17.1075L40.2239 17.0582V15.3507V13.6269H41.9313C43.7045 13.6269 44.1642 13.4627 43.9343 12.8881C43.8687 12.691 43.5075 12.6418 42.0299 12.6418H40.2075L40.2567 10.8687L40.306 9.11194L42.1119 9.02985C43.7866 8.94776 43.9179 8.91492 43.9179 8.6194C43.9179 8.30746 43.7866 8.29104 42.0791 8.24179L40.2239 8.19254V6.64925C40.2239 4.1209 39.8791 3.77612 37.3672 3.77612H35.8075L35.7582 1.92089C35.709 0.213432 35.6925 0.0820885 35.3806 0.0820885C35.0851 0.0820885 35.0522 0.213432 34.9701 1.88806L34.8881 3.69403L33.1313 3.74328L31.3582 3.79253V1.97015C31.3582 0.492535 31.309 0.13134 31.1119 0.06567C30.5373 -0.164181 30.3731 0.295521 30.3731 2.06865V3.77612H28.6493H26.9418L26.8925 1.93731C26.8433 0.279102 26.8104 0.0820885 26.5313 0.0328331C26.0552 -0.0656738 25.9403 0.295521 25.9403 2.08507V3.77612H24.2164H22.4925V2.15075C22.4925 0.311939 22.4269 -3.8147e-06 22 -3.8147e-06C21.5731 -3.8147e-06 21.5075 0.311939 21.5075 2.15075V3.77612H19.7836H18.0597V2.08507C18.0597 0.295521 17.9448 -0.0656738 17.4687 0.0328331C17.1896 0.0820885 17.1567 0.279102 17.1075 1.93731L17.0582 3.77612H15.3507H13.6269V2.06865C13.6269 0.295521 13.4627 -0.164181 12.8881 0.06567C12.691 0.13134 12.6418 0.492535 12.6418 1.97015V3.79253L10.8851 3.74328L9.11194 3.69403L9.02985 1.88806C8.96418 0.426865 8.89851 0.0820885 8.70149 0.0328331C8.55373 0.0164146 8.38955 0.0328331 8.32388 0.0985069ZM39.0746 4.92537C39.403 5.25373 39.403 5.46716 39.403 22C39.403 38.5328 39.403 38.7463 39.0746 39.0746C38.7463 39.403 38.5328 39.403 22 39.403C5.46716 39.403 5.25373 39.403 4.92537 39.0746C4.59702 38.7463 4.59702 38.5328 4.59702 22C4.59702 5.46716 4.59702 5.25373 4.92537 4.92537C5.25373 4.59701 5.46716 4.59701 22 4.59701C38.5328 4.59701 38.7463 4.59701 39.0746 4.92537Z" fill="#18181B"/>
<path d="M7.05971 6.82984C6.87911 7.02686 6.89553 7.12536 7.10896 7.35522C7.37165 7.60148 7.40448 7.60148 7.66717 7.35522C7.8806 7.12536 7.89702 7.02686 7.71642 6.82984C7.6015 6.68208 7.45374 6.56716 7.38807 6.56716C7.32239 6.56716 7.17463 6.68208 7.05971 6.82984Z" fill="#18181B"/>
<path d="M36.2833 6.82984C36.1027 7.02686 36.1192 7.12536 36.3326 7.35522C36.5953 7.60148 36.6281 7.60148 36.8908 7.35522C37.1042 7.12536 37.1207 7.02686 36.9401 6.82984C36.8251 6.68208 36.6774 6.56716 36.6117 6.56716C36.546 6.56716 36.3983 6.68208 36.2833 6.82984Z" fill="#18181B"/>
<path d="M9.63707 9.39098C9.48931 9.50591 9.29229 9.81785 9.19379 10.0641C8.94752 10.7208 8.96394 33.2626 9.21021 33.9686C9.30871 34.2477 9.52215 34.5596 9.68632 34.6417C9.88334 34.7402 14.5132 34.8059 22.0654 34.8059C33.9356 34.8059 34.149 34.8059 34.4774 34.4775C34.8386 34.1164 34.8221 34.8716 34.8221 22.082C34.8386 9.85068 34.8386 9.88352 34.4774 9.52233C34.149 9.19397 33.9356 9.19397 22.0326 9.19397C12.5923 9.19397 9.8505 9.24322 9.63707 9.39098ZM33.952 13.8238L33.9848 17.5671H32.1789H30.3729V16.6313C30.3729 15.3507 30.1266 15.1044 28.7968 15.1044C27.8117 15.1044 27.746 15.088 27.4998 14.6119C27.1714 13.988 26.4818 13.6268 25.5953 13.6268C25.0207 13.6268 24.8236 13.7253 24.3639 14.2178C23.9042 14.694 23.8057 14.9238 23.8057 15.5149C23.8057 16.1059 23.9042 16.3358 24.3639 16.8119C24.8401 17.3372 25.0042 17.4029 25.7102 17.4029C26.6296 17.4029 27.1386 17.1238 27.5162 16.4014C27.746 15.9417 27.8117 15.9089 28.6162 15.9581L29.4699 16.0074L29.5192 17.0253C29.5848 18.4537 29.7654 18.5522 32.1296 18.5522H33.9848V20.0298V21.5074H31.6042H29.2236L29.0266 21.097C28.7311 20.4238 27.8445 19.9805 27.0565 20.079C25.7595 20.2596 24.9221 21.7373 25.4804 22.8208C25.7759 23.379 26.7117 23.9701 27.3027 23.9701C27.9266 23.9701 28.7804 23.4447 29.0266 22.9029L29.2236 22.4925H31.6042H33.9848V23.9701V25.4477H32.1296C29.7654 25.4477 29.5848 25.5462 29.5192 26.9746L29.4699 27.9925L28.6162 28.0417C27.8117 28.091 27.746 28.0581 27.5162 27.6149C27.155 26.9253 26.5639 26.597 25.6774 26.597C25.0042 26.597 24.8401 26.679 24.3639 27.188C23.9207 27.6477 23.8057 27.9104 23.8057 28.4358C23.8057 29.3223 24.4132 30.1268 25.2341 30.3567C26.0386 30.5865 27.1221 30.1268 27.4998 29.4044C27.746 28.9119 27.7953 28.8955 28.7639 28.8955C30.1266 28.8955 30.3729 28.6656 30.3729 27.385V26.4328H32.1789H33.9848L33.952 30.1596L33.9027 33.9029H21.9998H10.0968L10.0475 30.1596L10.0147 26.4328H11.8207H13.6266V27.3686C13.6266 28.6492 13.8729 28.8955 15.2027 28.8955C16.2042 28.8955 16.2535 28.9119 16.4998 29.4044C16.8774 30.1268 17.961 30.5865 18.7654 30.3567C19.5863 30.1268 20.1938 29.3223 20.1938 28.4358C20.1938 27.9104 20.0789 27.6477 19.6356 27.188C19.1595 26.679 18.9953 26.597 18.3221 26.597C17.4356 26.597 16.8445 26.9253 16.4833 27.6149C16.2535 28.0581 16.1878 28.091 15.3833 28.0417L14.5296 27.9925L14.4804 26.9746C14.4147 25.5462 14.2341 25.4477 11.8699 25.4477H10.0147V23.9701V22.4925H12.3953H14.7759L14.9729 22.9029C15.2684 23.5761 16.155 24.0193 16.943 23.9208C18.2401 23.7402 19.0774 22.2626 18.5192 21.179C18.2236 20.6208 17.2878 20.0298 16.6968 20.0298C16.0729 20.0298 15.2192 20.5552 14.9729 21.097L14.7759 21.5074H12.3953H10.0147V20.0298V18.5522H11.8699C14.2341 18.5522 14.4147 18.4537 14.4804 17.0253L14.5296 16.0074L15.3833 15.9581C16.1878 15.9089 16.2535 15.9417 16.4833 16.4014C16.861 17.1238 17.3699 17.4029 18.2893 17.4029C18.9953 17.4029 19.1595 17.3372 19.6356 16.8119C20.0953 16.3358 20.1938 16.1059 20.1938 15.5149C20.1938 14.9238 20.0953 14.694 19.6356 14.2178C19.1759 13.7253 18.9789 13.6268 18.4207 13.6268C17.5177 13.6268 16.9759 13.9059 16.5654 14.5626C16.2371 15.088 16.1878 15.1044 15.2192 15.1044C13.8729 15.1044 13.6266 15.3343 13.6266 16.6149V17.5671H11.8207H10.0147V13.9059C10.0147 11.8865 10.0639 10.179 10.1296 10.1298C10.1789 10.0641 15.5639 10.0313 22.0654 10.0477L33.9027 10.097L33.952 13.8238ZM18.9132 14.7268C19.3729 15.2522 19.4057 15.679 19.0281 16.1387C18.4042 16.9432 17.2386 16.5328 17.2386 15.5149C17.2386 14.5955 18.355 14.0865 18.9132 14.7268ZM26.3998 14.7104C27.1878 15.2522 26.6789 16.582 25.6774 16.582C25.2998 16.582 24.6266 15.8925 24.6266 15.5149C24.6266 15.1373 25.2998 14.4477 25.6774 14.4477C25.8744 14.4477 26.2027 14.5626 26.3998 14.7104ZM17.4684 21.2775C17.6162 21.4089 17.7311 21.7373 17.7311 21.9999C17.7311 22.6238 17.3371 22.985 16.6804 22.985C16.0236 22.985 15.7117 22.6567 15.7117 21.9999C15.7117 21.7373 15.7938 21.4089 15.9251 21.2775C16.1878 20.9328 17.1401 20.9492 17.4684 21.2775ZM28.2057 21.5402C28.5341 22.2462 28.1729 22.8865 27.4013 22.9522C26.6789 23.0178 26.2684 22.6731 26.2684 21.9999C26.2684 21.3268 26.6789 20.982 27.4013 21.0477C27.861 21.0805 28.0415 21.1955 28.2057 21.5402ZM18.9624 27.8283C19.455 28.3044 19.4714 28.5671 19.0281 29.1253C18.3878 29.9462 17.2386 29.5193 17.2386 28.4686C17.2386 27.4835 18.2565 27.1059 18.9624 27.8283ZM26.3998 27.6805C27.155 28.2059 26.6953 29.5522 25.7595 29.5522C25.2998 29.5522 24.6266 28.9119 24.6266 28.485C24.6266 28.1074 25.2998 27.4178 25.6774 27.4178C25.8744 27.4178 26.2027 27.5328 26.3998 27.6805Z" fill="#18181B"/>
<path d="M7.05971 36.7105C6.87911 36.9075 6.89553 37.006 7.10896 37.2358C7.37165 37.4821 7.40448 37.4821 7.66717 37.2358C7.8806 37.006 7.89702 36.9075 7.71642 36.7105C7.6015 36.5627 7.45374 36.4478 7.38807 36.4478C7.32239 36.4478 7.17463 36.5627 7.05971 36.7105Z" fill="#18181B"/>
<path d="M36.2833 36.7105C36.1027 36.9075 36.1192 37.006 36.3326 37.2358C36.5953 37.4821 36.6281 37.4821 36.8908 37.2358C37.1042 37.006 37.1207 36.9075 36.9401 36.7105C36.8251 36.5627 36.6774 36.4478 36.6117 36.4478C36.546 36.4478 36.3983 36.5627 36.2833 36.7105Z" fill="#18181B"/>
</svg>
