<svg width="44" height="45" viewBox="0 0 44 45" fill="none" xmlns="http://www.w3.org/2000/svg">
<circle opacity="0.2" cx="22" cy="23" r="15" fill="#5888FF"/>
<path d="M12.6628 1.27312C11.6272 1.89779 11.1834 3.2622 11.6765 4.31428C11.8573 4.72524 11.7587 4.85675 7.8463 8.76916C4.55856 12.0569 3.76951 12.7802 3.50649 12.6816C3.32566 12.6322 2.86538 12.5336 2.48729 12.5007C0.629721 12.287 -0.701812 14.6871 0.432457 16.2159C0.596844 16.446 1.00781 16.7912 1.33658 16.9721L1.94482 17.3008V22.9722V28.6435L1.33658 28.9723C0.0872447 29.6627 -0.340161 30.9285 0.284509 32.1614C0.89274 33.345 2.04345 33.7395 3.50649 33.2628C3.76951 33.1642 4.55856 33.871 7.8463 37.1752C11.7587 41.0876 11.8573 41.2191 11.6765 41.6301C10.9861 43.1424 12.1697 45 13.83 45C14.8327 45 15.8848 44.2767 16.1643 43.389L16.2629 43.0274H22H27.7371L27.8357 43.389C28.1152 44.2767 29.1673 45 30.17 45C31.8303 45 33.0139 43.1424 32.3235 41.6301C32.1427 41.2191 32.2413 41.0876 36.1537 37.1752C39.4414 33.871 40.2305 33.1642 40.4935 33.2628C41.9566 33.7395 43.1073 33.345 43.7155 32.1614C44.3402 30.9285 43.9128 29.6627 42.6634 28.9723L42.0552 28.6435V22.9722V17.3008L42.6634 16.9721C42.9922 16.7912 43.4032 16.446 43.5675 16.2159C44.7018 14.6871 43.3703 12.287 41.5127 12.5007C41.1346 12.5336 40.6743 12.6322 40.4935 12.6816C40.2305 12.7802 39.4414 12.0569 36.1537 8.76916C32.2413 4.85675 32.1427 4.72524 32.3235 4.31428C33.0139 2.80192 31.8303 0.944347 30.17 0.944347C29.1673 0.944347 28.1152 1.66765 27.8357 2.5389L27.7371 2.91699H22H16.2629L16.1643 2.5389C15.7533 1.20737 13.8957 0.533382 12.6628 1.27312ZM14.8985 2.25944C15.6054 2.93343 15.5067 4.10057 14.6684 4.64305C13.2546 5.56362 11.6436 3.57454 12.8108 2.3252C13.2875 1.8156 14.3725 1.78272 14.8985 2.25944ZM31.1892 2.3252C32.0769 3.2622 31.3536 4.88963 30.0385 4.88963C29.233 4.88963 28.4275 3.82112 28.6412 2.99918C28.9042 1.93067 30.433 1.5197 31.1892 2.3252ZM27.9837 4.44579C28.1809 4.791 28.559 5.2184 28.8221 5.38279C29.3481 5.728 30.4166 5.8102 31.0906 5.56362C31.4522 5.41567 31.8139 5.728 35.529 9.45958C38.7181 12.6487 39.5401 13.5693 39.425 13.7665C39.3428 13.898 39.2606 14.3747 39.2606 14.8186C39.2606 15.8049 39.688 16.5447 40.4935 16.9885L41.0689 17.3008V23.0051V28.7093L40.4935 28.9887C39.7045 29.3504 39.2606 30.1394 39.2606 31.1258C39.2606 31.5696 39.3428 32.0463 39.425 32.1778C39.5401 32.3751 38.7181 33.2957 35.529 36.4683C31.5509 40.4629 31.4851 40.5287 31.0084 40.3643C30.2193 40.0848 29.1179 40.2985 28.5426 40.8246C28.2796 41.0876 27.9837 41.4657 27.9015 41.6629L27.7535 42.041H22.0164H16.2793L15.967 41.4328C15.441 40.43 14.0437 39.9533 12.9094 40.3807C12.5478 40.5287 12.1861 40.2163 8.47097 36.4848C5.28187 33.2957 4.45993 32.3751 4.575 32.1778C4.6572 32.0463 4.73939 31.5696 4.73939 31.1258C4.73939 30.1394 4.29555 29.3504 3.50649 28.9887L2.93114 28.7093V23.0051V17.3008L3.50649 16.9885C4.31198 16.5447 4.73939 15.8049 4.73939 14.8186C4.73939 14.3747 4.6572 13.898 4.575 13.7665C4.45993 13.5693 5.28187 12.6487 8.47097 9.45958C12.1861 5.728 12.5478 5.41567 12.9094 5.56362C14.0272 5.99102 15.4574 5.53074 15.9177 4.61017C16.0492 4.36359 16.2136 4.05126 16.2958 3.93619C16.4273 3.78824 17.6931 3.73892 22.0493 3.7718L27.6385 3.82112L27.9837 4.44579ZM3.50649 13.8816C4.34486 14.7364 3.81882 16.1337 2.58592 16.3309C2.12564 16.4131 1.91194 16.3474 1.48453 15.9857C1.04069 15.6241 0.958494 15.4268 0.958494 14.8515C0.958494 13.4377 2.47085 12.8624 3.50649 13.8816ZM42.7127 13.898C43.2388 14.5391 43.1566 15.4597 42.5319 15.9693C41.8579 16.5282 41.2333 16.5118 40.5921 15.92C40.2141 15.5748 40.0825 15.2953 40.0825 14.8843C40.099 13.5035 41.8744 12.8295 42.7127 13.898ZM3.09552 29.7942C4.26267 30.4025 4.16404 32.0463 2.93114 32.4737C1.8955 32.8354 0.958494 32.1778 0.958494 31.0929C0.958494 30.5175 1.04069 30.3203 1.46809 29.975C2.04345 29.4819 2.42154 29.449 3.09552 29.7942ZM42.5319 29.975C43.4689 30.7641 43.1237 32.26 41.9237 32.5559C40.2634 32.9505 39.3757 30.6162 40.8716 29.8107C41.5291 29.449 41.973 29.4983 42.5319 29.975ZM14.5862 41.3013C15.1286 41.5808 15.5067 42.3698 15.3588 42.9452C14.9478 44.6055 12.4327 44.326 12.4327 42.6C12.4327 42.1068 12.5478 41.8767 12.9423 41.515C13.5176 41.0054 13.9122 40.9396 14.5862 41.3013ZM31.0577 41.515C31.4522 41.8767 31.5673 42.1068 31.5673 42.6C31.5673 44.326 29.0522 44.6055 28.6412 42.9452C28.4275 42.0739 29.233 41.0712 30.17 41.0547C30.3837 41.0547 30.7783 41.2684 31.0577 41.515Z" fill="#18181B"/>
<path d="M19.3204 7.51977C13.3367 8.60472 8.55304 13.0103 6.82698 19.0268C6.54753 20.046 6.48177 20.7036 6.46533 22.8899C6.46533 25.4544 6.53109 25.964 7.12288 27.8215C8.66811 32.6381 12.6627 36.5012 17.6765 38.0464C19.008 38.4574 19.3368 38.4902 21.9999 38.4902C24.6629 38.4902 24.9917 38.4574 26.3233 38.0464C31.3371 36.5012 35.3316 32.6381 36.8769 27.8215C37.4522 25.9804 37.5344 25.4379 37.5344 22.9721C37.5344 20.5063 37.4522 19.9638 36.8769 18.1227C35.3316 13.3062 31.2877 9.39378 26.3233 7.9143C25.1232 7.55265 24.4821 7.47045 22.493 7.42114C21.1779 7.4047 19.7478 7.43757 19.3204 7.51977ZM23.1177 8.48965C23.9068 8.88418 24.9095 9.96913 25.5671 11.1363C26.0109 11.9089 27.0959 14.7035 27.0959 15.0651C27.0959 15.2295 23.6602 15.5747 21.9834 15.5747C21.2437 15.5747 19.7807 15.4925 18.7615 15.3775L16.8875 15.1966L16.9861 14.7363C17.1833 13.8651 18.071 11.7116 18.63 10.8075C19.2382 9.80474 20.1752 8.8513 20.9314 8.45677C21.6054 8.09512 22.378 8.11156 23.1177 8.48965ZM18.63 9.19651C17.8573 10.1171 16.7231 12.4021 16.3285 13.8158L16.0326 14.9501L15.2929 14.835C14.5038 14.7199 11.8079 13.8651 11.1832 13.5363L10.8051 13.3391L11.5942 12.5336C13.2545 10.8733 14.997 9.77187 17.3149 8.98281C19.2053 8.32526 19.3697 8.35814 18.63 9.19651ZM26.5041 8.91706C28.8055 9.67323 30.7288 10.8404 32.4056 12.5336L33.1946 13.3391L32.8165 13.5363C32.1919 13.8651 29.4959 14.7199 28.7069 14.835L27.9836 14.9501L27.6877 13.898C27.3096 12.4842 26.1096 10.0513 25.3698 9.19651C24.6629 8.37458 24.778 8.35814 26.5041 8.91706ZM10.9038 14.4405C11.0846 14.5555 13.8956 15.4432 15.0628 15.7391C15.6052 15.8871 15.7532 15.9857 15.6874 16.1994C15.4902 16.8569 15.0956 20.2762 15.0956 21.3283V22.479H11.1504C8.1092 22.479 7.20507 22.4296 7.20507 22.2653C7.20507 22.1666 7.3037 21.4433 7.43521 20.6707C7.8133 18.4022 8.55304 16.4953 9.72019 14.8021C10.1805 14.1446 10.4106 14.0624 10.9038 14.4405ZM34.97 15.9857C35.7755 17.4323 36.2687 18.8789 36.5646 20.6707C36.6961 21.4433 36.7947 22.1666 36.7947 22.2653C36.7947 22.4296 35.8906 22.479 32.8494 22.479H28.9041L28.8877 21.1967C28.8877 20.5063 28.7562 19.0433 28.5918 17.9583C28.4274 16.8734 28.3123 15.9692 28.3288 15.9364C28.3452 15.9199 29.0521 15.7062 29.8904 15.4925C30.7124 15.2624 31.9288 14.8679 32.57 14.6048L33.7535 14.1281L34.0494 14.4733C34.1974 14.6706 34.6248 15.3446 34.97 15.9857ZM21.9999 16.3145C23.7588 16.3145 25.6986 16.2651 26.2904 16.1994L27.3753 16.0843L27.6383 17.9255C27.7863 18.9446 27.9507 20.3748 28 21.1146L28.0986 22.479H21.9999H15.9011L15.9998 21.0324C16.0491 20.2433 16.2135 18.8131 16.3614 17.8433L16.608 16.0843L17.7094 16.1994C18.3012 16.2651 20.2409 16.3145 21.9999 16.3145ZM15.1121 24.7311C15.1121 25.4379 15.2436 26.901 15.408 27.9859C15.5724 29.0709 15.6874 29.975 15.671 30.0079C15.6546 30.0243 14.9477 30.238 14.1093 30.4517C13.2874 30.6819 12.0709 31.0764 11.4298 31.3394L10.2462 31.8161L9.95033 31.4709C9.42429 30.8134 8.38866 28.8079 8.02701 27.7393C7.71467 26.8188 7.20507 24.3037 7.20507 23.6625C7.20507 23.5146 8.1092 23.4653 11.1504 23.4653H15.0956L15.1121 24.7311ZM28 24.8133C27.9507 25.5694 27.7863 26.9996 27.6383 28.0188L27.3753 29.8599L26.2904 29.7449C24.8767 29.5969 19.1067 29.5969 17.7094 29.7449L16.608 29.8599L16.3614 28.101C16.2135 27.1311 16.0491 25.7009 15.9998 24.8954L15.9011 23.4653H21.9999H28.0986L28 24.8133ZM36.7947 23.6625C36.7947 24.3037 36.2851 26.8188 35.9728 27.7393C35.6275 28.7914 34.6083 30.7641 34.0494 31.4709C33.7864 31.7997 33.7042 31.8161 33.3426 31.6353C32.6357 31.2737 31.5014 30.8791 29.9069 30.4682C29.0685 30.238 28.3452 30.0243 28.3288 30.0079C28.3123 29.975 28.4274 29.0709 28.5918 27.9859C28.7562 26.901 28.8877 25.4379 28.8877 24.7311L28.9041 23.4653H32.8494C35.8906 23.4653 36.7947 23.5146 36.7947 23.6625ZM25.2383 30.5504C26.2575 30.6654 27.0959 30.7969 27.0959 30.8791C27.0959 31.2408 26.0109 34.0189 25.5671 34.808C24.5643 36.5833 23.1342 37.7669 21.9999 37.7669C20.8656 37.7669 19.4354 36.5833 18.4327 34.808C17.9888 34.0189 16.9039 31.2243 16.9039 30.8627C16.9039 30.4682 22.3944 30.2709 25.2383 30.5504ZM16.3121 32.0463C16.6902 33.46 17.9067 35.8929 18.63 36.7313C19.3368 37.5697 19.2217 37.5861 17.4957 37.0272C15.2271 36.2875 13.3531 35.1532 11.6764 33.4764C10.9202 32.7367 10.838 32.5887 11.0846 32.4572C11.8079 32.0463 15.0299 31.06 15.6874 31.0435C15.9669 31.0271 16.082 31.2079 16.3121 32.0463ZM30.8768 31.6846C31.7316 31.9641 32.6028 32.2764 32.8165 32.3915L33.1946 32.6052L32.4056 33.4107C30.7288 35.1039 28.8055 36.271 26.5041 37.0272C24.778 37.5861 24.6629 37.5697 25.3698 36.7313C26.1096 35.8929 27.3096 33.46 27.6877 32.0463L27.9836 30.9942L28.6411 31.0928C29.0192 31.1586 30.022 31.4216 30.8768 31.6846Z" fill="#18181B"/>
</svg>
